<svg xmlns="http://www.w3.org/2000/svg" xmlns:xlink="http://www.w3.org/1999/xlink" width="1024" zoomAndPan="magnify" viewBox="0 0 768 767.999994" height="1024" preserveAspectRatio="xMidYMid meet" version="1.0"><defs><clipPath id="afb2f9701b"><path d="M 37 284 L 740 284 L 740 610.332031 L 37 610.332031 Z M 37 284 " clip-rule="nonzero"/></clipPath><clipPath id="50ad7aee27"><path d="M 188 409 L 590 409 L 590 610.332031 L 188 610.332031 Z M 188 409 " clip-rule="nonzero"/></clipPath><clipPath id="2f2f530aa7"><path d="M 281 163.332031 L 496 163.332031 L 496 382 L 281 382 Z M 281 163.332031 " clip-rule="nonzero"/></clipPath></defs><rect x="-76.8" width="921.6" fill="#ffffff" y="-76.799999" height="921.599993" fill-opacity="1"/><rect x="-76.8" width="921.6" fill="#ffffff" y="-76.799999" height="921.599993" fill-opacity="1"/><g clip-path="url(#afb2f9701b)"><path fill="#5a92ff" d="M 37.46875 610.726562 L 37.46875 588.878906 C 37.46875 524.726562 101.425781 468.335938 179.375 467.304688 L 179.375 467.28125 L 181.554688 467.28125 L 181.554688 467.304688 C 259.511719 468.335938 323.457031 524.726562 323.457031 588.878906 L 323.457031 610.726562 Z M 453.984375 610.726562 L 453.984375 588.878906 C 453.984375 524.726562 517.929688 468.335938 595.886719 467.304688 L 595.886719 467.28125 L 598.070312 467.28125 L 598.070312 467.304688 C 676.015625 468.335938 739.972656 524.726562 739.972656 588.878906 L 739.972656 610.726562 Z M 180.464844 284.964844 C 222.53125 284.964844 256.679688 319.765625 256.679688 362.628906 C 256.679688 405.492188 222.53125 440.292969 180.464844 440.292969 C 138.398438 440.292969 104.261719 405.492188 104.261719 362.628906 C 104.261719 319.765625 138.398438 284.964844 180.464844 284.964844 Z M 596.976562 284.964844 C 639.042969 284.964844 673.179688 319.765625 673.179688 362.628906 C 673.179688 405.492188 639.042969 440.292969 596.976562 440.292969 C 554.914062 440.292969 520.765625 405.492188 520.765625 362.628906 C 520.765625 319.765625 554.914062 284.964844 596.976562 284.964844 " fill-opacity="1" fill-rule="evenodd"/></g><g clip-path="url(#50ad7aee27)"><path fill="#004aad" d="M 188.121094 610.726562 L 188.121094 580.074219 C 188.121094 490.085938 277.839844 410.96875 387.191406 409.519531 L 387.191406 409.496094 C 387.699219 409.496094 388.203125 409.507812 388.722656 409.507812 C 389.238281 409.507812 389.746094 409.496094 390.25 409.496094 L 390.25 409.519531 C 499.601562 410.96875 589.320312 490.085938 589.320312 580.074219 L 589.320312 610.726562 L 188.121094 610.726562 " fill-opacity="1" fill-rule="evenodd"/></g><g clip-path="url(#2f2f530aa7)"><path fill="#004aad" d="M 388.722656 163.265625 C 447.71875 163.265625 495.632812 212.078125 495.632812 272.214844 C 495.632812 332.347656 447.71875 381.171875 388.722656 381.171875 C 329.722656 381.171875 281.808594 332.347656 281.808594 272.214844 C 281.808594 212.078125 329.722656 163.265625 388.722656 163.265625 " fill-opacity="1" fill-rule="evenodd"/></g></svg>