<svg xmlns="http://www.w3.org/2000/svg" xmlns:xlink="http://www.w3.org/1999/xlink" width="1024" zoomAndPan="magnify" viewBox="0 0 768 767.999994" height="1024" preserveAspectRatio="xMidYMid meet" version="1.0"><defs><clipPath id="97dca86ae9"><path d="M 110 145 L 216 145 L 216 392 L 110 392 Z M 110 145 " clip-rule="nonzero"/></clipPath><clipPath id="cfe960f0d9"><path d="M 253.871094 -44.273438 L 833.980469 206.335938 L 579.988281 794.273438 L -0.121094 543.664062 Z M 253.871094 -44.273438 " clip-rule="nonzero"/></clipPath><clipPath id="ee41bd54cd"><path d="M 253.871094 -44.273438 L 833.980469 206.335938 L 579.988281 794.273438 L -0.121094 543.664062 Z M 253.871094 -44.273438 " clip-rule="nonzero"/></clipPath><clipPath id="4ac78d32bf"><path d="M 244 51 L 520 51 L 520 124 L 244 124 Z M 244 51 " clip-rule="nonzero"/></clipPath><clipPath id="59547db520"><path d="M 253.871094 -44.273438 L 833.980469 206.335938 L 579.988281 794.273438 L -0.121094 543.664062 Z M 253.871094 -44.273438 " clip-rule="nonzero"/></clipPath><clipPath id="a9d4fc1e81"><path d="M 253.871094 -44.273438 L 833.980469 206.335938 L 579.988281 794.273438 L -0.121094 543.664062 Z M 253.871094 -44.273438 " clip-rule="nonzero"/></clipPath><clipPath id="9448a26a90"><path d="M 548 97 L 735 97 L 735 328 L 548 328 Z M 548 97 " clip-rule="nonzero"/></clipPath><clipPath id="b1801d91ac"><path d="M 253.871094 -44.273438 L 833.980469 206.335938 L 579.988281 794.273438 L -0.121094 543.664062 Z M 253.871094 -44.273438 " clip-rule="nonzero"/></clipPath><clipPath id="7057919532"><path d="M 253.871094 -44.273438 L 833.980469 206.335938 L 579.988281 794.273438 L -0.121094 543.664062 Z M 253.871094 -44.273438 " clip-rule="nonzero"/></clipPath><clipPath id="7dfa032220"><path d="M 608 349 L 725 349 L 725 608 L 608 608 Z M 608 349 " clip-rule="nonzero"/></clipPath><clipPath id="1a2bb07d01"><path d="M 253.871094 -44.273438 L 833.980469 206.335938 L 579.988281 794.273438 L -0.121094 543.664062 Z M 253.871094 -44.273438 " clip-rule="nonzero"/></clipPath><clipPath id="bf0c52e925"><path d="M 253.871094 -44.273438 L 833.980469 206.335938 L 579.988281 794.273438 L -0.121094 543.664062 Z M 253.871094 -44.273438 " clip-rule="nonzero"/></clipPath><clipPath id="856f5701ab"><path d="M 309 621 L 588 621 L 588 694 L 309 694 Z M 309 621 " clip-rule="nonzero"/></clipPath><clipPath id="1512e795e9"><path d="M 253.871094 -44.273438 L 833.980469 206.335938 L 579.988281 794.273438 L -0.121094 543.664062 Z M 253.871094 -44.273438 " clip-rule="nonzero"/></clipPath><clipPath id="c79920b31f"><path d="M 253.871094 -44.273438 L 833.980469 206.335938 L 579.988281 794.273438 L -0.121094 543.664062 Z M 253.871094 -44.273438 " clip-rule="nonzero"/></clipPath><clipPath id="57dffea03f"><path d="M 103 418 L 283 418 L 283 644 L 103 644 Z M 103 418 " clip-rule="nonzero"/></clipPath><clipPath id="31e79366d7"><path d="M 253.871094 -44.273438 L 833.980469 206.335938 L 579.988281 794.273438 L -0.121094 543.664062 Z M 253.871094 -44.273438 " clip-rule="nonzero"/></clipPath><clipPath id="b77cc7f435"><path d="M 253.871094 -44.273438 L 833.980469 206.335938 L 579.988281 794.273438 L -0.121094 543.664062 Z M 253.871094 -44.273438 " clip-rule="nonzero"/></clipPath><clipPath id="8772897e81"><path d="M 83.695312 347.542969 L 140.917969 347.542969 L 140.917969 367.351562 L 83.695312 367.351562 Z M 83.695312 347.542969 " clip-rule="nonzero"/></clipPath><clipPath id="97fd21f2bf"><path d="M 197.304688 78.910156 L 281.730469 78.910156 L 281.730469 163.339844 L 197.304688 163.339844 Z M 197.304688 78.910156 " clip-rule="nonzero"/></clipPath><clipPath id="7aba011555"><path d="M 210.105469 100 L 235 100 L 235 137 L 210.105469 137 Z M 210.105469 100 " clip-rule="nonzero"/></clipPath><clipPath id="f5f89014c3"><path d="M 244 100 L 268.949219 100 L 268.949219 137 L 244 137 Z M 244 100 " clip-rule="nonzero"/></clipPath><clipPath id="59119aeaf8"><path d="M 502.1875 59.792969 L 586.617188 59.792969 L 586.617188 144.21875 L 502.1875 144.21875 Z M 502.1875 59.792969 " clip-rule="nonzero"/></clipPath><clipPath id="14213ec0f6"><path d="M 522 70.339844 L 561 70.339844 L 561 101 L 522 101 Z M 522 70.339844 " clip-rule="nonzero"/></clipPath><clipPath id="c62b4ead1d"><path d="M 556 108 L 572.835938 108 L 572.835938 133.449219 L 556 133.449219 Z M 556 108 " clip-rule="nonzero"/></clipPath><clipPath id="7327dad15f"><path d="M 515.699219 102 L 568 102 L 568 117 L 515.699219 117 Z M 515.699219 102 " clip-rule="nonzero"/></clipPath><clipPath id="8345e93645"><path d="M 671.824219 327.851562 L 756.25 327.851562 L 756.25 412.28125 L 671.824219 412.28125 Z M 671.824219 327.851562 " clip-rule="nonzero"/></clipPath><clipPath id="83ae8ab89c"><path d="M 682.378906 340.308594 L 745.488281 340.308594 L 745.488281 400 L 682.378906 400 Z M 682.378906 340.308594 " clip-rule="nonzero"/></clipPath><clipPath id="e7cdd4acaa"><path d="M 544.347656 583.730469 L 628.777344 583.730469 L 628.777344 668.160156 L 544.347656 668.160156 Z M 544.347656 583.730469 " clip-rule="nonzero"/></clipPath><clipPath id="5a2ffd08fe"><path d="M 555.277344 606.828125 L 617.535156 606.828125 L 617.535156 648.613281 L 555.277344 648.613281 Z M 555.277344 606.828125 " clip-rule="nonzero"/></clipPath><clipPath id="7df496d578"><path d="M 239.464844 606.828125 L 323.890625 606.828125 L 323.890625 691.253906 L 239.464844 691.253906 Z M 239.464844 606.828125 " clip-rule="nonzero"/></clipPath><clipPath id="92107abb57"><path d="M 252.582031 619.945312 L 310.574219 619.945312 L 310.574219 677.9375 L 252.582031 677.9375 Z M 252.582031 619.945312 " clip-rule="nonzero"/></clipPath><clipPath id="812fc1e7bb"><path d="M 26.414062 268.546875 L 196.976562 268.546875 L 196.976562 488.570312 L 26.414062 488.570312 Z M 26.414062 268.546875 " clip-rule="nonzero"/></clipPath></defs><rect x="-76.8" width="921.6" fill="#ffffff" y="-76.799999" height="921.599993" fill-opacity="1"/><rect x="-76.8" width="921.6" fill="#ffffff" y="-76.799999" height="921.599993" fill-opacity="1"/><g clip-path="url(#97dca86ae9)"><g clip-path="url(#cfe960f0d9)"><g clip-path="url(#ee41bd54cd)"><path fill="#004aad" d="M 201.3125 165.863281 C 198.46875 172.660156 195.160156 179.222656 191.390625 185.550781 C 191.253906 185.777344 191.140625 186.015625 191.054688 186.265625 C 190.964844 186.515625 190.902344 186.769531 190.863281 187.03125 C 190.824219 187.292969 190.8125 187.554688 190.824219 187.820312 C 190.839844 188.082031 190.878906 188.34375 190.941406 188.597656 C 191.007812 188.855469 191.09375 189.101562 191.210938 189.339844 C 191.324219 189.582031 191.457031 189.804688 191.617188 190.019531 C 191.773438 190.230469 191.949219 190.425781 192.148438 190.601562 C 192.34375 190.777344 192.554688 190.933594 192.78125 191.070312 C 193.007812 191.207031 193.246094 191.316406 193.496094 191.40625 C 193.746094 191.492188 194 191.558594 194.261719 191.59375 C 194.523438 191.632812 194.785156 191.644531 195.050781 191.632812 C 195.3125 191.617188 195.574219 191.578125 195.828125 191.515625 C 196.085938 191.449219 196.332031 191.359375 196.570312 191.246094 C 196.808594 191.132812 197.035156 190.996094 197.246094 190.839844 C 197.460938 190.683594 197.652344 190.503906 197.832031 190.308594 C 198.007812 190.113281 198.164062 189.902344 198.296875 189.671875 C 205.34375 177.847656 210.816406 165.335938 214.71875 152.132812 C 215.007812 151.746094 215.222656 151.324219 215.363281 150.863281 C 215.503906 150.402344 215.566406 149.933594 215.546875 149.449219 C 215.527344 148.96875 215.429688 148.503906 215.25 148.058594 C 215.070312 147.609375 214.824219 147.207031 214.507812 146.84375 C 214.1875 146.480469 213.820312 146.183594 213.402344 145.945312 C 212.980469 145.710938 212.535156 145.550781 212.058594 145.46875 C 211.585938 145.382812 211.109375 145.382812 210.636719 145.460938 C 210.160156 145.542969 209.710938 145.699219 209.289062 145.933594 C 196.019531 153.832031 181.917969 159.746094 166.984375 163.683594 C 166.730469 163.75 166.484375 163.839844 166.246094 163.957031 C 166.007812 164.074219 165.785156 164.210938 165.574219 164.371094 C 165.363281 164.53125 165.171875 164.710938 164.996094 164.910156 C 164.820312 165.105469 164.667969 165.320312 164.535156 165.546875 C 164.402344 165.777344 164.292969 166.015625 164.207031 166.265625 C 164.121094 166.515625 164.058594 166.769531 164.023438 167.03125 C 163.988281 167.292969 163.980469 167.558594 163.996094 167.820312 C 164.011719 168.085938 164.054688 168.34375 164.121094 168.601562 C 164.1875 168.855469 164.28125 169.101562 164.394531 169.339844 C 164.511719 169.578125 164.648438 169.800781 164.808594 170.011719 C 164.96875 170.222656 165.148438 170.414062 165.347656 170.589844 C 165.542969 170.761719 165.757812 170.917969 165.984375 171.050781 C 166.214844 171.183594 166.453125 171.292969 166.703125 171.378906 C 166.953125 171.464844 167.207031 171.527344 167.46875 171.5625 C 167.730469 171.597656 167.996094 171.605469 168.257812 171.589844 C 168.523438 171.574219 168.78125 171.53125 169.039062 171.464844 C 177.132812 169.328125 185.035156 166.613281 192.738281 163.328125 C 138.199219 224.046875 107.96875 306.378906 111.136719 388.003906 C 111.148438 388.269531 111.183594 388.527344 111.246094 388.785156 C 111.304688 389.042969 111.390625 389.292969 111.503906 389.53125 C 111.613281 389.769531 111.746094 389.996094 111.902344 390.210938 C 112.054688 390.425781 112.230469 390.621094 112.425781 390.800781 C 112.617188 390.980469 112.828125 391.140625 113.054688 391.277344 C 113.277344 391.414062 113.515625 391.53125 113.761719 391.621094 C 114.011719 391.714844 114.265625 391.78125 114.527344 391.820312 C 114.789062 391.863281 115.050781 391.878906 115.3125 391.867188 C 115.578125 391.859375 115.839844 391.824219 116.09375 391.761719 C 116.351562 391.699219 116.601562 391.613281 116.839844 391.503906 C 117.082031 391.390625 117.308594 391.257812 117.523438 391.105469 C 117.734375 390.949219 117.933594 390.773438 118.109375 390.582031 C 118.289062 390.386719 118.449219 390.175781 118.585938 389.953125 C 118.726562 389.726562 118.839844 389.488281 118.933594 389.242188 C 119.023438 388.992188 119.089844 388.738281 119.132812 388.480469 C 119.171875 388.21875 119.1875 387.957031 119.179688 387.691406 C 116.042969 306.851562 146.515625 225.300781 201.3125 165.863281 Z M 201.3125 165.863281 " fill-opacity="1" fill-rule="nonzero"/></g></g></g><g clip-path="url(#4ac78d32bf)"><g clip-path="url(#59547db520)"><g clip-path="url(#a9d4fc1e81)"><path fill="#004aad" d="M 247.34375 123.378906 C 247.972656 123.652344 248.628906 123.757812 249.3125 123.691406 C 249.996094 123.628906 250.621094 123.40625 251.1875 123.023438 C 255.644531 120.03125 260.175781 117.160156 264.789062 114.417969 C 269.402344 111.671875 274.089844 109.054688 278.84375 106.566406 C 283.601562 104.078125 288.421875 101.722656 293.308594 99.5 C 298.195312 97.277344 303.140625 95.1875 308.140625 93.238281 C 313.140625 91.285156 318.191406 89.472656 323.292969 87.796875 C 328.390625 86.125 333.535156 84.589844 338.71875 83.199219 C 343.902344 81.804688 349.121094 80.554688 354.375 79.449219 C 359.628906 78.34375 364.90625 77.382812 370.210938 76.566406 C 375.519531 75.75 380.84375 75.082031 386.183594 74.558594 C 391.527344 74.035156 396.878906 73.65625 402.242188 73.425781 C 407.605469 73.199219 412.972656 73.113281 418.339844 73.179688 C 423.707031 73.246094 429.070312 73.457031 434.425781 73.816406 C 439.78125 74.175781 445.125 74.679688 450.453125 75.332031 C 455.78125 75.984375 461.085938 76.78125 466.371094 77.726562 C 471.65625 78.667969 476.910156 79.757812 482.132812 80.988281 C 487.359375 82.222656 492.546875 83.597656 497.695312 85.113281 C 487.3125 87.359375 477.089844 90.195312 467.035156 93.621094 C 466.785156 93.707031 466.542969 93.816406 466.316406 93.949219 C 466.085938 94.082031 465.875 94.234375 465.675781 94.410156 C 465.476562 94.582031 465.296875 94.777344 465.136719 94.984375 C 464.976562 95.195312 464.839844 95.417969 464.722656 95.65625 C 464.605469 95.894531 464.515625 96.140625 464.445312 96.394531 C 464.378906 96.648438 464.335938 96.910156 464.320312 97.171875 C 464.304688 97.4375 464.3125 97.699219 464.347656 97.960938 C 464.382812 98.222656 464.441406 98.480469 464.527344 98.730469 C 464.613281 98.980469 464.722656 99.21875 464.855469 99.445312 C 464.988281 99.675781 465.140625 99.890625 465.316406 100.085938 C 465.492188 100.285156 465.683594 100.464844 465.894531 100.625 C 466.105469 100.785156 466.328125 100.921875 466.5625 101.039062 C 466.800781 101.15625 467.046875 101.25 467.304688 101.316406 C 467.558594 101.382812 467.816406 101.425781 468.082031 101.441406 C 468.34375 101.460938 468.609375 101.449219 468.871094 101.414062 C 469.132812 101.378906 469.386719 101.320312 469.636719 101.234375 C 484.003906 96.332031 498.679688 92.675781 513.664062 90.261719 C 514.269531 90.425781 514.875 90.445312 515.488281 90.328125 C 516.101562 90.207031 516.65625 89.957031 517.152344 89.574219 C 517.839844 89.292969 518.402344 88.855469 518.84375 88.261719 C 519.289062 87.667969 519.546875 87.003906 519.621094 86.265625 C 519.695312 85.53125 519.574219 84.828125 519.261719 84.15625 C 518.945312 83.484375 518.480469 82.945312 517.863281 82.53125 C 503.808594 73.0625 489.914062 62.976562 476.5625 52.550781 C 476.355469 52.390625 476.132812 52.25 475.898438 52.128906 C 475.660156 52.011719 475.414062 51.917969 475.160156 51.847656 C 474.90625 51.777344 474.648438 51.730469 474.382812 51.710938 C 474.121094 51.691406 473.859375 51.699219 473.597656 51.730469 C 473.332031 51.761719 473.078125 51.820312 472.828125 51.902344 C 472.574219 51.984375 472.335938 52.09375 472.105469 52.222656 C 471.875 52.351562 471.660156 52.503906 471.460938 52.675781 C 471.261719 52.847656 471.078125 53.039062 470.917969 53.246094 C 470.753906 53.457031 470.613281 53.679688 470.496094 53.914062 C 470.375 54.148438 470.28125 54.394531 470.210938 54.648438 C 470.140625 54.902344 470.09375 55.164062 470.074219 55.425781 C 470.054688 55.691406 470.0625 55.953125 470.09375 56.214844 C 470.128906 56.476562 470.183594 56.734375 470.265625 56.984375 C 470.351562 57.234375 470.457031 57.476562 470.585938 57.703125 C 470.714844 57.933594 470.867188 58.148438 471.039062 58.351562 C 471.210938 58.550781 471.402344 58.730469 471.609375 58.894531 C 478.964844 64.636719 486.492188 70.265625 494.113281 75.761719 C 488.914062 74.339844 483.683594 73.0625 478.414062 71.921875 C 473.148438 70.785156 467.855469 69.785156 462.535156 68.933594 C 457.214844 68.078125 451.875 67.367188 446.515625 66.796875 C 441.15625 66.230469 435.789062 65.804688 430.40625 65.523438 C 425.027344 65.246094 419.640625 65.109375 414.253906 65.117188 C 408.863281 65.125 403.480469 65.28125 398.097656 65.578125 C 392.71875 65.875 387.351562 66.316406 381.992188 66.902344 C 376.636719 67.488281 371.300781 68.21875 365.984375 69.089844 C 360.664062 69.964844 355.375 70.976562 350.113281 72.132812 C 344.847656 73.289062 339.621094 74.585938 334.429688 76.023438 C 329.234375 77.460938 324.082031 79.035156 318.972656 80.746094 C 313.867188 82.460938 308.804688 84.308594 303.796875 86.292969 C 298.785156 88.28125 293.835938 90.398438 288.9375 92.648438 C 284.042969 94.898438 279.210938 97.277344 274.441406 99.789062 C 269.671875 102.296875 264.976562 104.933594 260.347656 107.695312 C 255.722656 110.457031 251.171875 113.339844 246.699219 116.347656 C 246.089844 116.757812 245.628906 117.296875 245.3125 117.960938 C 244.996094 118.625 244.871094 119.320312 244.9375 120.054688 C 245.007812 120.785156 245.253906 121.449219 245.6875 122.046875 C 246.117188 122.640625 246.671875 123.085938 247.34375 123.378906 Z M 247.34375 123.378906 " fill-opacity="1" fill-rule="nonzero"/></g></g></g><g clip-path="url(#9448a26a90)"><g clip-path="url(#b1801d91ac)"><g clip-path="url(#7057919532)"><path fill="#004aad" d="M 719.597656 322.894531 C 720.101562 322.070312 720.28125 321.179688 720.140625 320.226562 C 723.078125 306.269531 727.722656 292.90625 734.074219 280.136719 C 734.191406 279.898438 734.285156 279.652344 734.355469 279.398438 C 734.421875 279.144531 734.46875 278.886719 734.484375 278.621094 C 734.503906 278.359375 734.496094 278.09375 734.464844 277.832031 C 734.429688 277.570312 734.371094 277.316406 734.285156 277.0625 C 734.203125 276.8125 734.09375 276.574219 733.964844 276.34375 C 733.832031 276.117188 733.679688 275.902344 733.507812 275.703125 C 733.335938 275.503906 733.144531 275.320312 732.933594 275.160156 C 732.726562 275 732.503906 274.859375 732.265625 274.742188 C 732.03125 274.625 731.785156 274.53125 731.527344 274.460938 C 731.273438 274.390625 731.015625 274.347656 730.75 274.328125 C 730.488281 274.3125 730.226562 274.316406 729.960938 274.351562 C 729.699219 274.386719 729.445312 274.445312 729.195312 274.527344 C 728.945312 274.613281 728.703125 274.71875 728.472656 274.851562 C 728.246094 274.980469 728.03125 275.132812 727.832031 275.308594 C 727.632812 275.480469 727.453125 275.671875 727.289062 275.878906 C 727.128906 276.089844 726.988281 276.3125 726.871094 276.550781 C 722.648438 285.042969 719.136719 293.820312 716.335938 302.882812 C 706.28125 262.867188 687.886719 224.222656 662.589844 190.203125 C 633.691406 151.335938 596.417969 119.351562 554.800781 97.710938 C 554.566406 97.589844 554.320312 97.492188 554.070312 97.417969 C 553.816406 97.34375 553.554688 97.296875 553.292969 97.273438 C 553.03125 97.25 552.765625 97.25 552.503906 97.28125 C 552.242188 97.308594 551.984375 97.363281 551.730469 97.441406 C 551.480469 97.523438 551.238281 97.625 551.007812 97.753906 C 550.773438 97.878906 550.558594 98.027344 550.355469 98.199219 C 550.152344 98.367188 549.96875 98.554688 549.804688 98.761719 C 549.636719 98.96875 549.496094 99.1875 549.375 99.421875 C 549.25 99.65625 549.152344 99.902344 549.078125 100.15625 C 549.003906 100.410156 548.957031 100.667969 548.933594 100.929688 C 548.910156 101.195312 548.914062 101.457031 548.945312 101.71875 C 548.972656 101.984375 549.027344 102.238281 549.105469 102.492188 C 549.1875 102.742188 549.289062 102.984375 549.417969 103.21875 C 549.542969 103.449219 549.691406 103.664062 549.863281 103.867188 C 550.03125 104.070312 550.222656 104.253906 550.425781 104.417969 C 550.632812 104.585938 550.855469 104.726562 551.089844 104.847656 C 630.164062 145.972656 690.316406 224.472656 710.085938 311.429688 C 707.273438 307.960938 704.628906 304.519531 702.03125 301.136719 C 696.949219 294.519531 691.695312 287.679688 685.289062 280.753906 C 685.109375 280.558594 684.914062 280.386719 684.699219 280.230469 C 684.484375 280.074219 684.257812 279.941406 684.019531 279.832031 C 683.78125 279.722656 683.53125 279.636719 683.273438 279.574219 C 683.015625 279.511719 682.757812 279.476562 682.492188 279.464844 C 682.230469 279.457031 681.96875 279.472656 681.707031 279.511719 C 681.445312 279.554688 681.191406 279.621094 680.945312 279.714844 C 680.695312 279.804688 680.460938 279.917969 680.234375 280.058594 C 680.007812 280.195312 679.800781 280.355469 679.605469 280.535156 C 679.414062 280.710938 679.238281 280.910156 679.082031 281.121094 C 678.925781 281.335938 678.792969 281.5625 678.683594 281.804688 C 678.574219 282.042969 678.488281 282.289062 678.425781 282.546875 C 678.363281 282.804688 678.328125 283.066406 678.316406 283.328125 C 678.308594 283.59375 678.324219 283.855469 678.363281 284.117188 C 678.40625 284.375 678.472656 284.628906 678.5625 284.878906 C 678.652344 285.125 678.769531 285.363281 678.90625 285.585938 C 679.042969 285.8125 679.203125 286.023438 679.382812 286.214844 C 685.539062 292.871094 690.679688 299.5625 695.648438 306.035156 C 700.726562 312.648438 705.976562 319.484375 712.382812 326.410156 C 712.898438 326.96875 713.523438 327.351562 714.257812 327.554688 C 714.992188 327.757812 715.722656 327.753906 716.453125 327.542969 C 717.1875 327.332031 717.808594 326.941406 718.316406 326.378906 C 718.828125 325.8125 719.152344 325.15625 719.292969 324.40625 C 719.386719 323.902344 719.5 323.398438 719.597656 322.894531 Z M 719.597656 322.894531 " fill-opacity="1" fill-rule="nonzero"/></g></g></g><g clip-path="url(#7dfa032220)"><g clip-path="url(#1a2bb07d01)"><g clip-path="url(#bf0c52e925)"><path fill="#004aad" d="M 664.042969 589.828125 C 664 589.566406 663.933594 589.3125 663.839844 589.066406 C 663.746094 588.816406 663.632812 588.582031 663.492188 588.355469 C 663.351562 588.132812 663.195312 587.921875 663.011719 587.730469 C 662.832031 587.539062 662.636719 587.363281 662.421875 587.210938 C 662.207031 587.054688 661.980469 586.925781 661.738281 586.816406 C 661.496094 586.707031 661.25 586.621094 660.992188 586.558594 C 660.734375 586.5 660.472656 586.464844 660.210938 586.457031 C 659.945312 586.449219 659.683594 586.464844 659.421875 586.507812 C 649.960938 588.0625 640.640625 590.226562 631.460938 592.996094 C 693.660156 531.035156 728.632812 441.042969 723.527344 353.441406 C 723.511719 353.175781 723.46875 352.917969 723.402344 352.660156 C 723.335938 352.40625 723.246094 352.15625 723.128906 351.921875 C 723.015625 351.683594 722.878906 351.457031 722.71875 351.246094 C 722.558594 351.035156 722.382812 350.84375 722.183594 350.667969 C 721.988281 350.492188 721.773438 350.335938 721.546875 350.203125 C 721.320312 350.070312 721.078125 349.960938 720.832031 349.875 C 720.582031 349.785156 720.324219 349.726562 720.0625 349.6875 C 719.800781 349.652344 719.539062 349.640625 719.277344 349.65625 C 719.011719 349.671875 718.753906 349.714844 718.496094 349.78125 C 718.242188 349.847656 717.996094 349.9375 717.757812 350.050781 C 717.519531 350.167969 717.292969 350.304688 717.082031 350.464844 C 716.871094 350.621094 716.679688 350.800781 716.503906 351 C 716.328125 351.195312 716.171875 351.410156 716.039062 351.636719 C 715.90625 351.863281 715.796875 352.101562 715.710938 352.351562 C 715.621094 352.601562 715.5625 352.855469 715.523438 353.117188 C 715.488281 353.378906 715.476562 353.644531 715.492188 353.90625 C 720.546875 440.609375 685.304688 529.707031 622.890625 590.136719 C 626.925781 579.5625 630.367188 568.796875 633.210938 557.839844 C 633.277344 557.582031 633.316406 557.324219 633.332031 557.058594 C 633.347656 556.796875 633.335938 556.53125 633.296875 556.269531 C 633.261719 556.007812 633.199219 555.753906 633.113281 555.503906 C 633.027344 555.253906 632.914062 555.015625 632.78125 554.789062 C 632.648438 554.5625 632.492188 554.347656 632.316406 554.152344 C 632.140625 553.957031 631.945312 553.777344 631.734375 553.617188 C 631.523438 553.460938 631.300781 553.324219 631.0625 553.207031 C 630.824219 553.09375 630.578125 553.003906 630.320312 552.9375 C 630.066406 552.871094 629.804688 552.832031 629.542969 552.816406 C 629.277344 552.800781 629.015625 552.8125 628.753906 552.847656 C 628.492188 552.886719 628.238281 552.945312 627.988281 553.035156 C 627.738281 553.121094 627.5 553.230469 627.273438 553.367188 C 627.046875 553.5 626.832031 553.65625 626.636719 553.832031 C 626.4375 554.007812 626.261719 554.199219 626.101562 554.410156 C 625.941406 554.621094 625.804688 554.847656 625.691406 555.085938 C 625.578125 555.324219 625.484375 555.570312 625.421875 555.824219 C 621.308594 571.71875 615.929688 587.171875 609.277344 602.179688 C 609.113281 602.546875 609.007812 602.929688 608.960938 603.328125 C 608.910156 603.726562 608.921875 604.125 608.992188 604.519531 C 609.0625 604.914062 609.191406 605.292969 609.375 605.648438 C 609.558594 606.007812 609.789062 606.328125 610.070312 606.617188 C 610.347656 606.90625 610.664062 607.144531 611.015625 607.339844 C 611.367188 607.53125 611.742188 607.667969 612.132812 607.75 C 612.527344 607.832031 612.921875 607.855469 613.324219 607.820312 C 613.722656 607.78125 614.109375 607.6875 614.480469 607.535156 C 614.550781 607.507812 614.617188 607.480469 614.6875 607.453125 C 615.480469 607.386719 616.1875 607.109375 616.8125 606.617188 C 631.015625 600.984375 645.652344 596.929688 660.722656 594.449219 C 660.984375 594.40625 661.238281 594.335938 661.488281 594.246094 C 661.734375 594.152344 661.96875 594.035156 662.195312 593.898438 C 662.417969 593.757812 662.628906 593.597656 662.820312 593.417969 C 663.011719 593.238281 663.1875 593.039062 663.339844 592.824219 C 663.496094 592.609375 663.628906 592.382812 663.738281 592.140625 C 663.847656 591.902344 663.929688 591.652344 663.992188 591.394531 C 664.050781 591.136719 664.085938 590.878906 664.09375 590.613281 C 664.105469 590.351562 664.085938 590.085938 664.042969 589.828125 Z M 664.042969 589.828125 " fill-opacity="1" fill-rule="nonzero"/></g></g></g><g clip-path="url(#856f5701ab)"><g clip-path="url(#1512e795e9)"><g clip-path="url(#c79920b31f)"><path fill="#004aad" d="M 586.914062 623.191406 C 586.769531 622.96875 586.605469 622.761719 586.421875 622.574219 C 586.238281 622.382812 586.039062 622.214844 585.820312 622.0625 C 585.605469 621.914062 585.375 621.785156 585.132812 621.683594 C 584.890625 621.578125 584.636719 621.496094 584.378906 621.441406 C 584.121094 621.386719 583.859375 621.355469 583.597656 621.351562 C 583.332031 621.347656 583.070312 621.371094 582.8125 621.417969 C 582.550781 621.464844 582.296875 621.535156 582.054688 621.632812 C 581.808594 621.730469 581.574219 621.851562 581.351562 621.992188 C 508.484375 669.074219 413.714844 682.199219 330.527344 657.511719 L 363.984375 650.9375 C 364.242188 650.890625 364.496094 650.8125 364.742188 650.714844 C 364.984375 650.613281 365.21875 650.492188 365.4375 650.34375 C 365.660156 650.199219 365.863281 650.03125 366.050781 649.847656 C 366.242188 649.660156 366.40625 649.457031 366.554688 649.238281 C 366.703125 649.019531 366.828125 648.785156 366.929688 648.542969 C 367.03125 648.296875 367.109375 648.046875 367.164062 647.785156 C 367.214844 647.527344 367.242188 647.265625 367.242188 647 C 367.242188 646.734375 367.21875 646.472656 367.167969 646.214844 C 367.117188 645.953125 367.039062 645.703125 366.941406 645.457031 C 366.839844 645.214844 366.714844 644.980469 366.566406 644.761719 C 366.421875 644.539062 366.253906 644.335938 366.066406 644.148438 C 365.882812 643.960938 365.675781 643.792969 365.457031 643.648438 C 365.238281 643.5 365.003906 643.375 364.761719 643.273438 C 364.515625 643.171875 364.265625 643.097656 364.003906 643.042969 C 363.746094 642.992188 363.484375 642.964844 363.21875 642.964844 C 362.953125 642.964844 362.691406 642.992188 362.433594 643.042969 L 313.132812 652.730469 C 312.382812 652.878906 311.726562 653.210938 311.167969 653.734375 C 310.605469 654.253906 310.226562 654.886719 310.027344 655.625 C 309.824219 656.363281 309.835938 657.097656 310.054688 657.832031 C 310.273438 658.5625 310.671875 659.183594 311.242188 659.691406 C 323.050781 670.132812 334.691406 681.070312 345.839844 692.199219 C 346.027344 692.386719 346.230469 692.554688 346.449219 692.703125 C 346.667969 692.847656 346.898438 692.972656 347.144531 693.074219 C 347.390625 693.175781 347.640625 693.25 347.898438 693.304688 C 348.160156 693.355469 348.421875 693.378906 348.683594 693.378906 C 348.949219 693.378906 349.210938 693.355469 349.472656 693.304688 C 349.730469 693.25 349.980469 693.175781 350.226562 693.074219 C 350.46875 692.972656 350.703125 692.847656 350.921875 692.699219 C 351.140625 692.554688 351.34375 692.386719 351.53125 692.199219 C 351.71875 692.011719 351.886719 691.808594 352.03125 691.589844 C 352.179688 691.371094 352.300781 691.136719 352.402344 690.894531 C 352.503906 690.648438 352.582031 690.398438 352.632812 690.136719 C 352.683594 689.878906 352.707031 689.617188 352.707031 689.351562 C 352.707031 689.085938 352.679688 688.824219 352.628906 688.566406 C 352.578125 688.308594 352.5 688.054688 352.398438 687.8125 C 352.296875 687.566406 352.171875 687.335938 352.027344 687.117188 C 351.878906 686.894531 351.710938 686.691406 351.523438 686.507812 C 344.488281 679.484375 337.257812 672.535156 329.914062 665.734375 C 414.90625 690.398438 511.40625 676.765625 585.71875 628.753906 C 585.941406 628.609375 586.144531 628.445312 586.335938 628.261719 C 586.523438 628.078125 586.695312 627.878906 586.84375 627.660156 C 586.996094 627.441406 587.121094 627.210938 587.226562 626.96875 C 587.332031 626.726562 587.414062 626.476562 587.46875 626.21875 C 587.523438 625.960938 587.554688 625.699219 587.558594 625.4375 C 587.5625 625.171875 587.539062 624.910156 587.492188 624.648438 C 587.445312 624.390625 587.371094 624.136719 587.277344 623.890625 C 587.179688 623.644531 587.058594 623.410156 586.914062 623.191406 Z M 586.914062 623.191406 " fill-opacity="1" fill-rule="nonzero"/></g></g></g><g clip-path="url(#57dffea03f)"><g clip-path="url(#31e79366d7)"><g clip-path="url(#b77cc7f435)"><path fill="#004aad" d="M 280.335938 636.417969 C 206.078125 593.71875 149.984375 520.128906 127.867188 437.398438 L 152.867188 465.476562 C 153.042969 465.675781 153.238281 465.855469 153.445312 466.011719 C 153.65625 466.171875 153.882812 466.3125 154.121094 466.425781 C 154.359375 466.542969 154.605469 466.632812 154.859375 466.699219 C 155.117188 466.765625 155.375 466.808594 155.640625 466.824219 C 155.90625 466.839844 156.167969 466.828125 156.429688 466.792969 C 156.691406 466.753906 156.949219 466.695312 157.195312 466.605469 C 157.445312 466.519531 157.6875 466.410156 157.914062 466.277344 C 158.140625 466.140625 158.355469 465.988281 158.550781 465.8125 C 158.75 465.636719 158.929688 465.441406 159.085938 465.230469 C 159.246094 465.019531 159.382812 464.796875 159.5 464.558594 C 159.613281 464.320312 159.703125 464.070312 159.769531 463.816406 C 159.835938 463.558594 159.878906 463.300781 159.894531 463.035156 C 159.910156 462.773438 159.898438 462.507812 159.859375 462.246094 C 159.824219 461.984375 159.761719 461.730469 159.675781 461.480469 C 159.585938 461.230469 159.476562 460.992188 159.34375 460.765625 C 159.207031 460.535156 159.054688 460.324219 158.878906 460.125 L 123.46875 420.355469 C 123.304688 420.128906 123.117188 419.917969 122.910156 419.730469 L 122.765625 419.570312 C 122.652344 419.4375 122.527344 419.316406 122.394531 419.199219 C 122.261719 419.085938 122.121094 418.980469 121.976562 418.886719 C 121.832031 418.789062 121.679688 418.703125 121.523438 418.625 C 121.363281 418.550781 121.203125 418.484375 121.039062 418.425781 C 120.871094 418.371094 120.703125 418.328125 120.53125 418.292969 C 120.359375 418.261719 120.1875 418.238281 120.011719 418.226562 C 119.835938 418.21875 119.664062 418.21875 119.488281 418.230469 C 119.3125 418.242188 119.140625 418.265625 118.96875 418.300781 C 118.796875 418.332031 118.628906 418.378906 118.464844 418.4375 C 118.296875 418.492188 118.136719 418.558594 117.980469 418.636719 C 117.824219 418.714844 117.671875 418.800781 117.527344 418.898438 C 117.382812 418.996094 117.242188 419.101562 117.109375 419.21875 C 116.980469 419.332031 116.855469 419.457031 116.742188 419.585938 C 116.625 419.71875 116.519531 419.859375 116.421875 420.003906 C 116.324219 420.148438 116.234375 420.300781 116.160156 420.457031 C 116.082031 420.613281 116.011719 420.773438 115.957031 420.9375 C 113.117188 429.21875 111.488281 438.011719 109.90625 446.511719 C 108.382812 454.726562 106.808594 463.222656 104.164062 470.941406 C 104 471.417969 103.925781 471.910156 103.949219 472.417969 C 103.96875 472.921875 104.082031 473.40625 104.289062 473.871094 C 104.492188 474.332031 104.773438 474.742188 105.132812 475.097656 C 105.492188 475.457031 105.90625 475.734375 106.367188 475.9375 C 106.464844 475.976562 106.5625 476.015625 106.664062 476.050781 C 106.914062 476.136719 107.171875 476.195312 107.433594 476.230469 C 107.695312 476.265625 107.957031 476.277344 108.222656 476.257812 C 108.484375 476.242188 108.746094 476.199219 109 476.132812 C 109.253906 476.066406 109.5 475.972656 109.738281 475.859375 C 109.976562 475.742188 110.199219 475.601562 110.410156 475.441406 C 110.621094 475.28125 110.8125 475.101562 110.988281 474.90625 C 111.160156 474.707031 111.316406 474.492188 111.449219 474.265625 C 111.582031 474.035156 111.6875 473.796875 111.773438 473.546875 C 114.609375 465.269531 116.242188 456.484375 117.820312 447.984375 C 118.429688 444.707031 119.050781 441.390625 119.742188 438.097656 C 142.152344 523.421875 199.824219 599.40625 276.324219 643.394531 C 276.460938 643.472656 276.597656 643.542969 276.738281 643.601562 C 277.210938 643.804688 277.703125 643.914062 278.214844 643.929688 C 278.730469 643.941406 279.226562 643.863281 279.710938 643.6875 C 280.191406 643.511719 280.625 643.25 281.007812 642.910156 C 281.390625 642.566406 281.699219 642.167969 281.925781 641.707031 C 282.15625 641.25 282.292969 640.761719 282.339844 640.25 C 282.382812 639.742188 282.328125 639.238281 282.183594 638.746094 C 282.035156 638.253906 281.800781 637.808594 281.480469 637.40625 C 281.164062 637.003906 280.78125 636.675781 280.335938 636.417969 Z M 280.335938 636.417969 " fill-opacity="1" fill-rule="nonzero"/></g></g></g><g clip-path="url(#8772897e81)"><path fill="#ffffff" d="M 83.695312 347.542969 L 140.945312 347.542969 L 140.945312 367.351562 L 83.695312 367.351562 Z M 83.695312 347.542969 " fill-opacity="1" fill-rule="nonzero"/></g><g clip-path="url(#97fd21f2bf)"><path fill="#004aad" d="M 281.625 121.070312 C 281.625 122.453125 281.558594 123.828125 281.421875 125.203125 C 281.285156 126.578125 281.082031 127.941406 280.816406 129.296875 C 280.546875 130.652344 280.210938 131.988281 279.808594 133.308594 C 279.410156 134.632812 278.945312 135.929688 278.414062 137.207031 C 277.886719 138.480469 277.296875 139.726562 276.644531 140.945312 C 275.996094 142.164062 275.285156 143.347656 274.519531 144.496094 C 273.753906 145.644531 272.929688 146.75 272.054688 147.816406 C 271.179688 148.886719 270.253906 149.90625 269.277344 150.882812 C 268.300781 151.859375 267.277344 152.785156 266.210938 153.660156 C 265.144531 154.539062 264.035156 155.359375 262.886719 156.125 C 261.738281 156.894531 260.554688 157.601562 259.339844 158.253906 C 258.121094 158.90625 256.875 159.496094 255.597656 160.023438 C 254.324219 160.550781 253.023438 161.015625 251.703125 161.417969 C 250.382812 161.816406 249.042969 162.152344 247.6875 162.421875 C 246.335938 162.691406 244.96875 162.894531 243.597656 163.027344 C 242.222656 163.164062 240.84375 163.230469 239.464844 163.230469 C 238.082031 163.230469 236.707031 163.164062 235.332031 163.027344 C 233.957031 162.894531 232.59375 162.691406 231.238281 162.421875 C 229.882812 162.152344 228.546875 161.816406 227.226562 161.417969 C 225.902344 161.015625 224.605469 160.550781 223.328125 160.023438 C 222.054688 159.496094 220.808594 158.90625 219.589844 158.253906 C 218.371094 157.601562 217.1875 156.894531 216.039062 156.125 C 214.894531 155.359375 213.785156 154.539062 212.71875 153.660156 C 211.648438 152.785156 210.628906 151.859375 209.652344 150.882812 C 208.675781 149.90625 207.75 148.886719 206.875 147.816406 C 205.996094 146.75 205.175781 145.644531 204.410156 144.496094 C 203.640625 143.347656 202.933594 142.164062 202.28125 140.945312 C 201.628906 139.726562 201.042969 138.480469 200.511719 137.207031 C 199.984375 135.929688 199.519531 134.632812 199.117188 133.308594 C 198.71875 131.988281 198.382812 130.652344 198.113281 129.296875 C 197.84375 127.941406 197.640625 126.578125 197.507812 125.203125 C 197.371094 123.828125 197.304688 122.453125 197.304688 121.070312 C 197.304688 119.691406 197.371094 118.3125 197.507812 116.9375 C 197.640625 115.566406 197.84375 114.199219 198.113281 112.847656 C 198.382812 111.492188 198.71875 110.152344 199.117188 108.832031 C 199.519531 107.511719 199.984375 106.214844 200.511719 104.9375 C 201.042969 103.660156 201.628906 102.414062 202.28125 101.195312 C 202.933594 99.980469 203.640625 98.796875 204.410156 97.648438 C 205.175781 96.5 205.996094 95.390625 206.875 94.324219 C 207.75 93.257812 208.675781 92.234375 209.652344 91.257812 C 210.628906 90.28125 211.648438 89.355469 212.71875 88.480469 C 213.785156 87.605469 214.894531 86.785156 216.039062 86.015625 C 217.1875 85.25 218.371094 84.539062 219.589844 83.890625 C 220.808594 83.238281 222.054688 82.648438 223.328125 82.121094 C 224.605469 81.589844 225.902344 81.128906 227.226562 80.726562 C 228.546875 80.324219 229.882812 79.992188 231.238281 79.722656 C 232.59375 79.453125 233.957031 79.25 235.332031 79.113281 C 236.707031 78.976562 238.082031 78.910156 239.464844 78.910156 C 240.84375 78.910156 242.222656 78.976562 243.597656 79.113281 C 244.96875 79.25 246.335938 79.453125 247.6875 79.722656 C 249.042969 79.992188 250.382812 80.324219 251.703125 80.726562 C 253.023438 81.128906 254.324219 81.589844 255.597656 82.121094 C 256.875 82.648438 258.121094 83.238281 259.339844 83.890625 C 260.554688 84.539062 261.738281 85.25 262.886719 86.015625 C 264.035156 86.785156 265.144531 87.605469 266.210938 88.480469 C 267.277344 89.355469 268.300781 90.28125 269.277344 91.257812 C 270.253906 92.234375 271.179688 93.257812 272.054688 94.324219 C 272.929688 95.390625 273.753906 96.5 274.519531 97.648438 C 275.285156 98.796875 275.996094 99.980469 276.644531 101.195312 C 277.296875 102.414062 277.886719 103.660156 278.414062 104.9375 C 278.945312 106.214844 279.410156 107.511719 279.808594 108.832031 C 280.210938 110.152344 280.546875 111.492188 280.816406 112.847656 C 281.082031 114.199219 281.285156 115.566406 281.421875 116.9375 C 281.558594 118.3125 281.625 119.691406 281.625 121.070312 Z M 281.625 121.070312 " fill-opacity="1" fill-rule="nonzero"/></g><g clip-path="url(#7aba011555)"><path fill="#ffffff" d="M 210.109375 136.992188 C 213.78125 135.664062 222.65625 133.316406 234.167969 135.996094 C 230.53125 133.957031 224.1875 132.101562 213.804688 133.792969 L 212.328125 134.03125 L 212.328125 100.765625 C 211.734375 100.761719 210.941406 100.78125 210.109375 100.816406 L 210.109375 136.992188 " fill-opacity="1" fill-rule="nonzero"/></g><path fill="#ffffff" d="M 238.191406 135.625 L 238.191406 103.550781 C 237.148438 102.167969 231.191406 95.558594 214.871094 97.898438 L 214.871094 131.0625 C 217.316406 130.726562 219.546875 130.578125 221.578125 130.578125 C 230.472656 130.578125 235.5625 133.402344 238.191406 135.625 " fill-opacity="1" fill-rule="nonzero"/><g clip-path="url(#f5f89014c3)"><path fill="#ffffff" d="M 268.8125 136.992188 L 268.8125 100.816406 C 267.980469 100.78125 267.191406 100.761719 266.59375 100.765625 L 266.59375 134.03125 L 265.121094 133.792969 C 254.71875 132.09375 248.375 133.957031 244.742188 136 C 256.257812 133.316406 265.140625 135.664062 268.8125 136.992188 " fill-opacity="1" fill-rule="nonzero"/></g><path fill="#ffffff" d="M 264.050781 131.0625 L 264.050781 97.898438 C 247.726562 95.550781 241.792969 102.152344 240.734375 103.550781 L 240.734375 135.625 C 243.964844 132.894531 250.917969 129.261719 264.050781 131.0625 " fill-opacity="1" fill-rule="nonzero"/><g clip-path="url(#59119aeaf8)"><path fill="#004aad" d="M 586.507812 101.953125 C 586.507812 103.335938 586.441406 104.710938 586.304688 106.085938 C 586.171875 107.460938 585.96875 108.824219 585.699219 110.179688 C 585.429688 111.53125 585.09375 112.871094 584.691406 114.191406 C 584.292969 115.511719 583.828125 116.8125 583.300781 118.085938 C 582.769531 119.363281 582.179688 120.609375 581.53125 121.828125 C 580.878906 123.046875 580.171875 124.226562 579.402344 125.375 C 578.636719 126.523438 577.816406 127.632812 576.9375 128.699219 C 576.0625 129.765625 575.136719 130.789062 574.160156 131.765625 C 573.183594 132.742188 572.160156 133.667969 571.09375 134.542969 C 570.027344 135.417969 568.917969 136.242188 567.769531 137.007812 C 566.625 137.777344 565.441406 138.484375 564.222656 139.136719 C 563.003906 139.785156 561.757812 140.375 560.480469 140.90625 C 559.207031 141.433594 557.90625 141.898438 556.585938 142.296875 C 555.265625 142.699219 553.925781 143.035156 552.574219 143.304688 C 551.21875 143.574219 549.855469 143.773438 548.480469 143.910156 C 547.105469 144.046875 545.730469 144.113281 544.347656 144.113281 C 542.96875 144.113281 541.589844 144.046875 540.214844 143.910156 C 538.839844 143.773438 537.476562 143.574219 536.121094 143.304688 C 534.769531 143.035156 533.429688 142.699219 532.109375 142.296875 C 530.789062 141.898438 529.488281 141.433594 528.214844 140.90625 C 526.9375 140.375 525.691406 139.785156 524.472656 139.136719 C 523.257812 138.484375 522.074219 137.777344 520.925781 137.007812 C 519.777344 136.242188 518.667969 135.417969 517.601562 134.542969 C 516.535156 133.667969 515.511719 132.742188 514.535156 131.765625 C 513.558594 130.789062 512.632812 129.765625 511.757812 128.699219 C 510.882812 127.632812 510.058594 126.523438 509.292969 125.375 C 508.527344 124.226562 507.816406 123.046875 507.164062 121.828125 C 506.515625 120.609375 505.925781 119.363281 505.398438 118.085938 C 504.867188 116.8125 504.402344 115.511719 504.003906 114.191406 C 503.601562 112.871094 503.265625 111.53125 502.996094 110.179688 C 502.726562 108.824219 502.527344 107.460938 502.390625 106.085938 C 502.253906 104.710938 502.1875 103.335938 502.1875 101.953125 C 502.1875 100.574219 502.253906 99.195312 502.390625 97.820312 C 502.527344 96.445312 502.726562 95.082031 502.996094 93.726562 C 503.265625 92.375 503.601562 91.035156 504.003906 89.714844 C 504.402344 88.394531 504.867188 87.09375 505.398438 85.820312 C 505.925781 84.542969 506.515625 83.296875 507.164062 82.078125 C 507.816406 80.859375 508.527344 79.679688 509.292969 78.53125 C 510.058594 77.382812 510.882812 76.273438 511.757812 75.207031 C 512.632812 74.140625 513.558594 73.117188 514.535156 72.140625 C 515.511719 71.164062 516.535156 70.238281 517.601562 69.363281 C 518.667969 68.488281 519.777344 67.664062 520.925781 66.898438 C 522.074219 66.128906 523.257812 65.421875 524.472656 64.769531 C 525.691406 64.121094 526.9375 63.53125 528.214844 63 C 529.488281 62.472656 530.789062 62.007812 532.109375 61.609375 C 533.429688 61.207031 534.769531 60.871094 536.121094 60.601562 C 537.476562 60.332031 538.839844 60.132812 540.214844 59.996094 C 541.589844 59.859375 542.96875 59.792969 544.347656 59.792969 C 545.730469 59.792969 547.105469 59.859375 548.480469 59.996094 C 549.855469 60.132812 551.21875 60.332031 552.574219 60.601562 C 553.925781 60.871094 555.265625 61.207031 556.585938 61.609375 C 557.90625 62.007812 559.207031 62.472656 560.480469 63 C 561.757812 63.53125 563.003906 64.121094 564.222656 64.769531 C 565.441406 65.421875 566.625 66.128906 567.769531 66.898438 C 568.917969 67.664062 570.027344 68.488281 571.09375 69.363281 C 572.160156 70.238281 573.183594 71.164062 574.160156 72.140625 C 575.136719 73.117188 576.0625 74.140625 576.9375 75.207031 C 577.816406 76.273438 578.636719 77.382812 579.402344 78.53125 C 580.171875 79.679688 580.878906 80.859375 581.53125 82.078125 C 582.179688 83.296875 582.769531 84.542969 583.300781 85.820312 C 583.828125 87.09375 584.292969 88.394531 584.691406 89.714844 C 585.09375 91.035156 585.429688 92.375 585.699219 93.726562 C 585.96875 95.082031 586.171875 96.445312 586.304688 97.820312 C 586.441406 99.195312 586.507812 100.574219 586.507812 101.953125 Z M 586.507812 101.953125 " fill-opacity="1" fill-rule="nonzero"/></g><path fill="#ffffff" d="M 528.519531 89.125 L 536.410156 89.125 C 537.492188 89.125 538.382812 88.238281 538.382812 87.15625 L 538.382812 76.304688 C 538.382812 75.222656 537.492188 74.335938 536.410156 74.335938 L 528.519531 74.335938 C 527.433594 74.335938 526.546875 75.222656 526.546875 76.304688 L 526.546875 87.15625 C 526.546875 88.238281 527.433594 89.125 528.519531 89.125 Z M 528.519531 76.304688 L 536.410156 76.304688 L 536.410156 87.15625 L 528.519531 87.15625 Z M 528.519531 76.304688 " fill-opacity="1" fill-rule="nonzero"/><path fill="#ffffff" d="M 555.148438 85.183594 L 542.324219 85.183594 C 541.785156 85.183594 541.339844 85.625 541.339844 86.167969 C 541.339844 86.710938 541.785156 87.15625 542.324219 87.15625 L 555.148438 87.15625 C 555.6875 87.15625 556.132812 86.710938 556.132812 86.167969 C 556.132812 85.625 555.6875 85.183594 555.148438 85.183594 Z M 555.148438 85.183594 " fill-opacity="1" fill-rule="nonzero"/><path fill="#ffffff" d="M 555.148438 91.097656 L 527.535156 91.097656 C 526.992188 91.097656 526.546875 91.542969 526.546875 92.085938 C 526.546875 92.628906 526.992188 93.070312 527.535156 93.070312 L 555.148438 93.070312 C 555.6875 93.070312 556.132812 92.628906 556.132812 92.085938 C 556.132812 91.542969 555.6875 91.097656 555.148438 91.097656 Z M 555.148438 91.097656 " fill-opacity="1" fill-rule="nonzero"/><path fill="#ffffff" d="M 555.148438 95.042969 L 527.535156 95.042969 C 526.992188 95.042969 526.546875 95.488281 526.546875 96.03125 C 526.546875 96.574219 526.992188 97.015625 527.535156 97.015625 L 555.148438 97.015625 C 555.6875 97.015625 556.132812 96.574219 556.132812 96.03125 C 556.132812 95.488281 555.6875 95.042969 555.148438 95.042969 Z M 555.148438 95.042969 " fill-opacity="1" fill-rule="nonzero"/><path fill="#ffffff" d="M 555.148438 98.742188 L 527.535156 98.742188 C 526.992188 98.742188 526.546875 99.1875 526.546875 99.726562 C 526.546875 100.269531 526.992188 100.714844 527.535156 100.714844 L 555.148438 100.714844 C 555.6875 100.714844 556.132812 100.269531 556.132812 99.726562 C 556.132812 99.1875 555.6875 98.742188 555.148438 98.742188 Z M 555.148438 98.742188 " fill-opacity="1" fill-rule="nonzero"/><g clip-path="url(#14213ec0f6)"><path fill="#ffffff" d="M 522.601562 72.460938 L 522.601562 100.960938 L 524.574219 100.960938 L 524.574219 72.460938 C 524.574219 72.410156 524.625 72.363281 524.671875 72.363281 L 558.007812 72.363281 C 558.054688 72.363281 558.105469 72.410156 558.105469 72.460938 L 558.105469 100.960938 L 560.078125 100.960938 L 560.078125 72.460938 C 560.078125 71.324219 559.140625 70.390625 558.007812 70.390625 L 524.671875 70.390625 C 523.539062 70.390625 522.601562 71.324219 522.601562 72.460938 Z M 522.601562 72.460938 " fill-opacity="1" fill-rule="nonzero"/></g><path fill="#ffffff" d="M 526.890625 111.808594 C 526.695312 111.90625 526.449219 111.957031 526.101562 111.957031 C 525.660156 111.957031 525.117188 111.808594 524.476562 111.5625 C 524.378906 111.859375 524.277344 112.105469 524.230469 112.351562 C 524.179688 112.597656 524.132812 112.84375 524.082031 113.089844 C 524.476562 113.238281 524.820312 113.339844 525.117188 113.386719 C 525.414062 113.4375 525.808594 113.484375 526.203125 113.484375 C 526.644531 113.484375 527.089844 113.4375 527.433594 113.339844 C 527.78125 113.238281 528.074219 113.089844 528.320312 112.84375 C 528.570312 112.648438 528.765625 112.402344 528.863281 112.105469 C 529.011719 111.808594 529.0625 111.511719 529.0625 111.117188 C 529.0625 110.773438 529.011719 110.527344 528.914062 110.28125 C 528.816406 110.035156 528.714844 109.835938 528.519531 109.6875 C 528.371094 109.542969 528.175781 109.394531 527.925781 109.246094 C 527.679688 109.148438 527.433594 109 527.1875 108.898438 L 526.695312 108.703125 C 526.496094 108.652344 526.351562 108.554688 526.25 108.457031 C 526.152344 108.503906 526.054688 108.359375 526.054688 108.160156 C 526.054688 108.0625 526.054688 107.964844 526.101562 107.863281 C 526.152344 107.765625 526.203125 107.714844 526.300781 107.667969 C 526.398438 107.617188 526.449219 107.570312 526.546875 107.570312 C 526.644531 107.570312 526.746094 107.519531 526.84375 107.519531 C 527.1875 107.519531 527.484375 107.570312 527.730469 107.617188 C 527.976562 107.714844 528.175781 107.765625 528.371094 107.863281 C 528.46875 107.617188 528.570312 107.371094 528.617188 107.125 C 528.667969 106.878906 528.714844 106.632812 528.765625 106.433594 C 528.421875 106.285156 528.074219 106.1875 527.730469 106.140625 C 527.433594 106.089844 527.089844 106.039062 526.746094 106.039062 C 526.351562 106.039062 526.003906 106.089844 525.707031 106.1875 C 525.414062 106.285156 525.117188 106.433594 524.917969 106.632812 C 524.722656 106.828125 524.523438 107.074219 524.425781 107.320312 C 524.328125 107.617188 524.230469 107.914062 524.230469 108.257812 C 524.230469 108.554688 524.277344 108.800781 524.328125 109 C 524.425781 109.195312 524.523438 109.394531 524.671875 109.589844 C 524.820312 109.738281 524.96875 109.886719 525.167969 110.035156 C 525.363281 110.132812 525.5625 110.28125 525.808594 110.332031 L 526.351562 110.527344 C 526.449219 110.578125 526.546875 110.578125 526.597656 110.625 C 526.695312 110.675781 526.746094 110.722656 526.84375 110.773438 C 526.890625 110.824219 526.941406 110.871094 526.992188 110.972656 C 527.039062 111.070312 527.039062 111.117188 527.039062 111.265625 C 527.140625 111.5625 527.039062 111.710938 526.890625 111.808594 Z M 526.890625 111.808594 " fill-opacity="1" fill-rule="nonzero"/><path fill="#ffffff" d="M 531.332031 106.140625 C 531.183594 106.140625 531.082031 106.140625 530.9375 106.140625 C 530.789062 106.140625 530.6875 106.140625 530.542969 106.140625 C 530.394531 106.140625 530.246094 106.1875 530.046875 106.1875 L 530.046875 110.328125 C 530.046875 110.824219 530.097656 111.265625 530.195312 111.660156 C 530.292969 112.054688 530.441406 112.402344 530.640625 112.695312 C 530.835938 112.992188 531.132812 113.191406 531.476562 113.339844 C 531.824219 113.484375 532.265625 113.585938 532.859375 113.585938 C 533.449219 113.585938 533.84375 113.484375 534.238281 113.339844 C 534.585938 113.191406 534.878906 112.992188 535.078125 112.695312 C 535.273438 112.402344 535.421875 112.054688 535.519531 111.660156 C 535.621094 111.265625 535.667969 110.824219 535.667969 110.328125 L 535.667969 106.1875 C 535.472656 106.140625 535.324219 106.140625 535.175781 106.140625 C 535.027344 106.140625 534.878906 106.140625 534.78125 106.140625 C 534.683594 106.140625 534.535156 106.140625 534.386719 106.140625 C 534.238281 106.140625 534.089844 106.1875 533.894531 106.1875 L 533.894531 110.082031 C 533.894531 110.429688 533.894531 110.722656 533.84375 110.921875 C 533.84375 111.167969 533.796875 111.367188 533.695312 111.511719 C 533.648438 111.660156 533.550781 111.761719 533.402344 111.808594 C 533.253906 111.859375 533.105469 111.90625 532.90625 111.90625 C 532.710938 111.90625 532.511719 111.859375 532.414062 111.808594 C 532.265625 111.761719 532.167969 111.660156 532.117188 111.511719 C 532.070312 111.367188 532.019531 111.167969 531.972656 110.921875 C 531.921875 110.675781 531.921875 110.378906 531.921875 110.082031 L 531.921875 106.1875 C 531.625 106.1875 531.476562 106.140625 531.332031 106.140625 Z M 531.332031 106.140625 " fill-opacity="1" fill-rule="nonzero"/><path fill="#ffffff" d="M 541.191406 108.898438 C 541.339844 108.652344 541.390625 108.359375 541.390625 108.011719 C 541.390625 107.617188 541.339844 107.320312 541.191406 107.074219 C 541.042969 106.828125 540.847656 106.632812 540.601562 106.484375 C 540.355469 106.335938 540.058594 106.238281 539.710938 106.140625 C 539.367188 106.039062 539.023438 106.039062 538.628906 106.039062 C 538.234375 106.039062 537.886719 106.039062 537.542969 106.089844 C 537.199219 106.140625 536.953125 106.140625 536.703125 106.1875 L 536.703125 113.386719 C 537.050781 113.4375 537.347656 113.484375 537.640625 113.484375 C 537.9375 113.535156 538.234375 113.535156 538.628906 113.535156 C 539.070312 113.535156 539.515625 113.484375 539.910156 113.4375 C 540.304688 113.386719 540.648438 113.238281 540.894531 113.089844 C 541.191406 112.945312 541.390625 112.695312 541.585938 112.402344 C 541.734375 112.105469 541.832031 111.761719 541.832031 111.316406 C 541.832031 111.070312 541.785156 110.824219 541.734375 110.625 C 541.683594 110.429688 541.585938 110.230469 541.488281 110.082031 C 541.390625 109.9375 541.242188 109.835938 541.09375 109.738281 C 540.945312 109.640625 540.796875 109.542969 540.648438 109.492188 C 540.894531 109.34375 541.042969 109.148438 541.191406 108.898438 Z M 538.53125 107.46875 C 538.578125 107.46875 538.628906 107.46875 538.675781 107.46875 C 538.726562 107.46875 538.777344 107.46875 538.824219 107.46875 C 538.921875 107.46875 539.023438 107.46875 539.121094 107.519531 C 539.21875 107.570312 539.316406 107.570312 539.417969 107.617188 C 539.515625 107.667969 539.566406 107.765625 539.613281 107.863281 C 539.664062 107.964844 539.710938 108.0625 539.710938 108.210938 C 539.710938 108.503906 539.613281 108.703125 539.464844 108.800781 C 539.316406 108.898438 539.070312 109 538.777344 109 L 538.480469 109 L 538.480469 107.46875 Z M 539.960938 111.660156 C 539.910156 111.761719 539.8125 111.859375 539.710938 111.90625 C 539.613281 111.957031 539.464844 112.007812 539.367188 112.054688 C 539.269531 112.105469 539.121094 112.105469 538.972656 112.105469 C 538.875 112.105469 538.777344 112.105469 538.675781 112.105469 C 538.578125 112.105469 538.53125 112.105469 538.480469 112.105469 L 538.480469 110.429688 L 538.875 110.429688 C 539.21875 110.429688 539.464844 110.476562 539.710938 110.625 C 539.910156 110.773438 540.007812 110.972656 540.007812 111.316406 C 540.058594 111.414062 540.007812 111.5625 539.960938 111.660156 Z M 539.960938 111.660156 " fill-opacity="1" fill-rule="nonzero"/><path fill="#ffffff" d="M 548.539062 106.140625 C 548.390625 106.140625 548.292969 106.140625 548.144531 106.1875 C 547.996094 106.1875 547.847656 106.238281 547.75 106.238281 L 546.269531 109.984375 L 544.792969 106.1875 C 544.644531 106.1875 544.496094 106.140625 544.347656 106.140625 C 544.199219 106.140625 544.050781 106.089844 543.902344 106.089844 C 543.757812 106.089844 543.609375 106.089844 543.460938 106.140625 C 543.3125 106.1875 543.164062 106.1875 543.015625 106.1875 L 542.71875 113.386719 C 543.015625 113.4375 543.3125 113.484375 543.558594 113.484375 C 543.804688 113.484375 544.101562 113.4375 544.347656 113.386719 L 544.445312 109.246094 L 545.433594 111.957031 C 545.53125 112.007812 545.679688 112.007812 545.777344 112.007812 C 545.875 112.007812 545.976562 112.007812 546.074219 112.007812 C 546.171875 112.007812 546.269531 112.007812 546.417969 112.007812 C 546.515625 112.007812 546.664062 111.957031 546.765625 111.957031 L 547.898438 109.195312 L 548.046875 113.386719 C 548.390625 113.4375 548.636719 113.484375 548.882812 113.484375 C 549.082031 113.484375 549.277344 113.484375 549.425781 113.4375 C 549.574219 113.386719 549.671875 113.386719 549.773438 113.386719 L 549.425781 106.1875 C 549.277344 106.1875 549.132812 106.140625 548.984375 106.140625 C 548.835938 106.140625 548.6875 106.140625 548.539062 106.140625 Z M 548.539062 106.140625 " fill-opacity="1" fill-rule="nonzero"/><path fill="#ffffff" d="M 551.351562 106.140625 C 551.203125 106.140625 551.054688 106.1875 550.855469 106.1875 L 550.855469 113.386719 C 551.203125 113.4375 551.496094 113.484375 551.746094 113.484375 C 551.992188 113.484375 552.285156 113.4375 552.632812 113.386719 L 552.632812 106.1875 C 552.433594 106.140625 552.285156 106.140625 552.140625 106.140625 C 551.992188 106.140625 551.84375 106.140625 551.746094 106.140625 C 551.644531 106.140625 551.496094 106.140625 551.351562 106.140625 Z M 551.351562 106.140625 " fill-opacity="1" fill-rule="nonzero"/><path fill="#ffffff" d="M 556.082031 113.484375 C 556.332031 113.484375 556.625 113.4375 556.972656 113.386719 L 556.972656 107.765625 L 558.648438 107.765625 C 558.695312 107.46875 558.746094 107.175781 558.746094 106.976562 C 558.746094 106.878906 558.746094 106.730469 558.746094 106.632812 C 558.746094 106.484375 558.695312 106.386719 558.695312 106.238281 L 553.519531 106.238281 C 553.46875 106.535156 553.421875 106.78125 553.421875 107.027344 C 553.421875 107.273438 553.46875 107.519531 553.519531 107.816406 L 555.195312 107.816406 L 555.195312 113.484375 C 555.542969 113.484375 555.835938 113.484375 556.082031 113.484375 Z M 556.082031 113.484375 " fill-opacity="1" fill-rule="nonzero"/><path fill="#ffffff" d="M 556.132812 75.8125 C 556.132812 74.976562 555.492188 74.335938 554.652344 74.335938 L 542.820312 74.335938 C 541.980469 74.335938 541.339844 74.976562 541.339844 75.8125 L 541.339844 77.785156 C 541.339844 78.625 541.980469 79.265625 542.820312 79.265625 L 554.652344 79.265625 C 555.492188 79.265625 556.132812 78.625 556.132812 77.785156 Z M 554.160156 77.292969 L 543.3125 77.292969 L 543.3125 76.304688 L 554.160156 76.304688 Z M 554.160156 77.292969 " fill-opacity="1" fill-rule="nonzero"/><path fill="#ffffff" d="M 555.148438 81.238281 L 542.324219 81.238281 C 541.785156 81.238281 541.339844 81.679688 541.339844 82.222656 C 541.339844 82.765625 541.785156 83.210938 542.324219 83.210938 L 555.148438 83.210938 C 555.6875 83.210938 556.132812 82.765625 556.132812 82.222656 C 556.132812 81.679688 555.6875 81.238281 555.148438 81.238281 Z M 555.148438 81.238281 " fill-opacity="1" fill-rule="nonzero"/><g clip-path="url(#c62b4ead1d)"><path fill="#ffffff" d="M 570.730469 115.851562 L 570.136719 115.851562 C 570.085938 115.851562 569.988281 115.851562 569.941406 115.851562 C 569.742188 114.867188 568.855469 114.125 567.71875 114.125 L 567.128906 114.125 C 566.882812 114.125 566.683594 114.175781 566.4375 114.226562 C 566.390625 114.125 566.289062 114.027344 566.242188 113.980469 C 565.648438 113.386719 564.859375 113.386719 564.613281 113.386719 L 564.023438 113.386719 C 563.921875 113.386719 563.824219 113.386719 563.726562 113.4375 L 563.726562 110.972656 C 563.726562 109.789062 562.789062 108.851562 561.65625 108.851562 L 561.113281 108.851562 C 559.980469 108.851562 559.042969 109.789062 559.042969 110.972656 L 559.042969 118.21875 C 558.992188 118.21875 558.945312 118.21875 558.894531 118.21875 L 558.300781 118.21875 C 557.117188 118.21875 556.132812 119.15625 556.132812 120.339844 L 556.132812 128.574219 C 556.132812 129.066406 556.28125 129.511719 556.625 129.90625 L 559.339844 133.160156 C 559.535156 133.40625 559.832031 133.503906 560.078125 133.503906 C 560.273438 133.503906 560.519531 133.40625 560.71875 133.257812 C 561.164062 132.914062 561.210938 132.273438 560.867188 131.878906 L 558.15625 128.625 C 558.15625 128.625 558.15625 128.574219 558.15625 128.574219 L 558.15625 120.339844 C 558.15625 120.242188 558.253906 120.191406 558.351562 120.191406 L 558.945312 120.191406 C 559.089844 120.191406 559.089844 120.339844 559.089844 120.339844 L 559.089844 124.628906 C 559.089844 125.171875 559.535156 125.617188 560.078125 125.617188 C 560.621094 125.617188 561.0625 125.171875 561.0625 124.628906 L 561.0625 110.972656 C 561.0625 110.871094 561.113281 110.824219 561.164062 110.824219 L 561.703125 110.824219 C 561.753906 110.824219 561.804688 110.871094 561.804688 110.972656 L 561.804688 115.410156 C 561.804688 115.457031 561.804688 115.457031 561.804688 115.507812 L 561.804688 118.664062 C 561.804688 119.207031 562.246094 119.648438 562.789062 119.648438 C 563.332031 119.648438 563.777344 119.207031 563.777344 118.664062 L 563.777344 115.507812 C 563.777344 115.457031 563.875 115.410156 564.070312 115.410156 L 564.664062 115.410156 C 564.761719 115.410156 564.859375 115.410156 564.859375 115.410156 C 564.910156 115.507812 564.960938 115.703125 564.910156 116.199219 C 564.910156 116.199219 564.910156 116.246094 564.910156 116.246094 L 564.910156 119.15625 C 564.910156 119.699219 565.355469 120.144531 565.894531 120.144531 C 566.4375 120.144531 566.882812 119.699219 566.882812 119.15625 L 566.882812 116.246094 C 566.882812 116.246094 566.980469 116.097656 567.179688 116.097656 L 567.769531 116.097656 C 567.96875 116.097656 568.066406 116.199219 568.066406 116.246094 L 568.066406 120.09375 C 568.066406 120.636719 568.507812 121.078125 569.050781 121.078125 C 569.59375 121.078125 570.039062 120.636719 570.039062 120.09375 L 570.039062 117.972656 C 570.039062 117.921875 570.085938 117.824219 570.1875 117.824219 L 570.777344 117.824219 C 570.925781 117.824219 570.976562 117.921875 570.976562 117.972656 L 570.976562 127.046875 C 570.976562 127.046875 570.976562 127.09375 570.976562 127.09375 L 568.261719 131.285156 C 567.96875 131.730469 568.113281 132.371094 568.558594 132.667969 C 568.707031 132.765625 568.902344 132.816406 569.101562 132.816406 C 569.445312 132.816406 569.742188 132.667969 569.941406 132.371094 L 572.601562 128.277344 C 572.847656 127.933594 572.996094 127.488281 572.996094 127.046875 L 572.996094 117.921875 C 572.898438 116.789062 571.910156 115.851562 570.730469 115.851562 Z M 570.730469 115.851562 " fill-opacity="1" fill-rule="nonzero"/></g><g clip-path="url(#7327dad15f)"><path fill="#ffffff" d="M 557.070312 116.445312 L 557.070312 114.769531 L 522.011719 114.769531 C 519.644531 114.769531 517.671875 112.84375 517.671875 110.429688 L 517.671875 109.246094 C 517.671875 106.878906 519.59375 104.90625 522.011719 104.90625 L 560.667969 104.90625 C 562.839844 104.90625 564.664062 106.535156 564.960938 108.652344 C 565.402344 109.292969 565.699219 110.132812 565.699219 110.972656 L 565.699219 111.5625 C 566.144531 111.660156 566.488281 111.808594 566.832031 112.007812 C 566.933594 111.511719 567.03125 111.019531 567.03125 110.476562 L 567.03125 109.292969 C 567.03125 105.84375 564.21875 102.984375 560.71875 102.984375 L 522.011719 102.984375 C 518.507812 102.933594 515.699219 105.746094 515.699219 109.246094 L 515.699219 110.429688 C 515.699219 113.878906 518.507812 116.742188 522.011719 116.742188 L 556.332031 116.742188 C 556.578125 116.59375 556.824219 116.492188 557.070312 116.445312 Z M 557.070312 116.445312 " fill-opacity="1" fill-rule="nonzero"/></g><g clip-path="url(#8345e93645)"><path fill="#004aad" d="M 756.144531 370.011719 C 756.144531 371.394531 756.074219 372.769531 755.941406 374.144531 C 755.804688 375.519531 755.601562 376.882812 755.332031 378.238281 C 755.0625 379.59375 754.730469 380.929688 754.328125 382.25 C 753.925781 383.574219 753.460938 384.871094 752.933594 386.148438 C 752.40625 387.421875 751.816406 388.667969 751.164062 389.886719 C 750.515625 391.105469 749.804688 392.289062 749.039062 393.4375 C 748.269531 394.582031 747.449219 395.691406 746.574219 396.757812 C 745.699219 397.828125 744.769531 398.847656 743.792969 399.824219 C 742.820312 400.800781 741.796875 401.726562 740.730469 402.601562 C 739.660156 403.480469 738.554688 404.300781 737.40625 405.066406 C 736.257812 405.835938 735.074219 406.542969 733.855469 407.195312 C 732.640625 407.847656 731.394531 408.433594 730.117188 408.964844 C 728.839844 409.492188 727.542969 409.957031 726.222656 410.359375 C 724.898438 410.757812 723.5625 411.09375 722.207031 411.363281 C 720.855469 411.632812 719.488281 411.835938 718.117188 411.96875 C 716.742188 412.105469 715.363281 412.171875 713.984375 412.171875 C 712.601562 412.171875 711.222656 412.105469 709.851562 411.96875 C 708.476562 411.835938 707.113281 411.632812 705.757812 411.363281 C 704.402344 411.09375 703.066406 410.757812 701.746094 410.359375 C 700.421875 409.957031 699.125 409.492188 697.847656 408.964844 C 696.574219 408.433594 695.328125 407.847656 694.109375 407.195312 C 692.890625 406.542969 691.707031 405.835938 690.558594 405.066406 C 689.410156 404.300781 688.304688 403.480469 687.238281 402.601562 C 686.167969 401.726562 685.148438 400.800781 684.171875 399.824219 C 683.195312 398.847656 682.269531 397.828125 681.390625 396.757812 C 680.515625 395.691406 679.695312 394.582031 678.925781 393.4375 C 678.160156 392.289062 677.453125 391.105469 676.800781 389.886719 C 676.148438 388.667969 675.558594 387.421875 675.03125 386.148438 C 674.503906 384.871094 674.039062 383.574219 673.636719 382.25 C 673.238281 380.929688 672.902344 379.59375 672.632812 378.238281 C 672.363281 376.882812 672.160156 375.519531 672.023438 374.144531 C 671.890625 372.769531 671.824219 371.394531 671.824219 370.011719 C 671.824219 368.632812 671.890625 367.253906 672.023438 365.878906 C 672.160156 364.507812 672.363281 363.140625 672.632812 361.789062 C 672.902344 360.433594 673.238281 359.09375 673.636719 357.773438 C 674.039062 356.453125 674.503906 355.152344 675.03125 353.878906 C 675.558594 352.601562 676.148438 351.355469 676.800781 350.136719 C 677.453125 348.921875 678.160156 347.738281 678.925781 346.589844 C 679.695312 345.441406 680.515625 344.332031 681.390625 343.265625 C 682.269531 342.199219 683.195312 341.175781 684.171875 340.199219 C 685.148438 339.222656 686.167969 338.296875 687.238281 337.421875 C 688.304688 336.546875 689.410156 335.722656 690.558594 334.957031 C 691.707031 334.191406 692.890625 333.480469 694.109375 332.832031 C 695.328125 332.179688 696.574219 331.589844 697.847656 331.0625 C 699.125 330.53125 700.421875 330.066406 701.746094 329.667969 C 703.066406 329.265625 704.402344 328.929688 705.757812 328.664062 C 707.113281 328.394531 708.476562 328.191406 709.851562 328.054688 C 711.222656 327.917969 712.601562 327.851562 713.984375 327.851562 C 715.363281 327.851562 716.742188 327.917969 718.117188 328.054688 C 719.488281 328.191406 720.855469 328.394531 722.207031 328.664062 C 723.5625 328.929688 724.898438 329.265625 726.222656 329.667969 C 727.542969 330.066406 728.839844 330.53125 730.117188 331.0625 C 731.394531 331.589844 732.640625 332.179688 733.855469 332.832031 C 735.074219 333.480469 736.257812 334.191406 737.40625 334.957031 C 738.554688 335.722656 739.660156 336.546875 740.730469 337.421875 C 741.796875 338.296875 742.820312 339.222656 743.792969 340.199219 C 744.769531 341.175781 745.699219 342.199219 746.574219 343.265625 C 747.449219 344.332031 748.269531 345.441406 749.039062 346.589844 C 749.804688 347.738281 750.515625 348.921875 751.164062 350.136719 C 751.816406 351.355469 752.40625 352.601562 752.933594 353.878906 C 753.460938 355.152344 753.925781 356.453125 754.328125 357.773438 C 754.730469 359.09375 755.0625 360.433594 755.332031 361.789062 C 755.601562 363.140625 755.804688 364.507812 755.941406 365.878906 C 756.074219 367.253906 756.144531 368.632812 756.144531 370.011719 Z M 756.144531 370.011719 " fill-opacity="1" fill-rule="nonzero"/></g><g clip-path="url(#83ae8ab89c)"><path fill="#ffffff" d="M 710.695312 395.523438 L 693.964844 395.523438 L 693.964844 372.53125 C 694.609375 372.738281 695.261719 372.890625 695.917969 372.988281 L 695.917969 393.078125 L 708.25 393.078125 Z M 724.300781 395.523438 L 738.148438 395.523438 L 738.148438 381.671875 L 736.195312 383.625 L 736.195312 393.078125 L 726.742188 393.078125 Z M 738.148438 368.128906 L 738.148438 340.292969 L 693.964844 340.292969 L 693.964844 349.480469 C 694.601562 349.273438 695.253906 349.121094 695.917969 349.023438 L 695.917969 342.734375 L 736.195312 342.734375 L 736.195312 370.082031 Z M 727.582031 378.695312 L 702.1875 378.695312 C 701.324219 378.695312 700.644531 378.019531 700.644531 377.152344 C 700.644531 376.289062 701.324219 375.613281 702.1875 375.613281 L 729.925781 375.613281 C 730.144531 375.613281 730.355469 375.65625 730.542969 375.734375 Z M 706.15625 384.859375 L 702.1875 384.859375 C 701.324219 384.859375 700.644531 384.183594 700.644531 383.316406 C 700.644531 382.453125 701.324219 381.777344 702.1875 381.777344 L 724.5 381.777344 L 721.417969 384.859375 L 713.574219 384.859375 L 711.644531 382.929688 C 710.664062 381.949219 709.0625 381.949219 708.085938 382.929688 Z M 707.597656 354.035156 L 729.925781 354.035156 C 730.789062 354.035156 731.46875 353.359375 731.46875 352.496094 C 731.46875 351.632812 730.789062 350.953125 729.925781 350.953125 L 704.453125 350.953125 C 705.714844 351.800781 706.769531 352.851562 707.597656 354.035156 Z M 709.773438 360.203125 L 729.925781 360.203125 C 730.789062 360.203125 731.46875 359.523438 731.46875 358.660156 C 731.46875 357.796875 730.789062 357.121094 729.925781 357.121094 L 709.160156 357.121094 C 709.496094 358.113281 709.703125 359.152344 709.773438 360.203125 Z M 708.550781 366.367188 L 729.925781 366.367188 C 730.789062 366.367188 731.46875 365.6875 731.46875 364.824219 C 731.46875 363.960938 730.789062 363.285156 729.925781 363.285156 L 709.585938 363.285156 C 709.386719 364.332031 709.042969 365.371094 708.550781 366.367188 Z M 706.375 369.449219 L 729.925781 369.449219 C 730.789062 369.449219 731.46875 370.125 731.46875 370.988281 C 731.46875 371.851562 730.789062 372.53125 729.925781 372.53125 L 702.1875 372.53125 C 702 372.53125 701.824219 372.5 701.660156 372.441406 C 703.417969 371.832031 705.039062 370.820312 706.375 369.449219 Z M 688.554688 355.691406 C 691.492188 350.605469 698.019531 348.855469 703.109375 351.792969 C 708.195312 354.730469 709.941406 361.257812 707.007812 366.34375 C 704.476562 370.722656 699.285156 372.628906 694.640625 371.195312 L 687.386719 383.753906 C 686.734375 384.882812 685.285156 385.277344 684.152344 384.621094 C 683.019531 383.96875 682.632812 382.515625 683.285156 381.386719 L 690.535156 368.824219 C 686.972656 365.523438 686.023438 360.074219 688.554688 355.691406 Z M 694.289062 367.453125 C 697.628906 369.378906 701.90625 368.234375 703.835938 364.894531 C 705.761719 361.558594 704.613281 357.277344 701.277344 355.351562 C 697.941406 353.425781 693.660156 354.570312 691.734375 357.90625 C 689.804688 361.242188 690.953125 365.523438 694.289062 367.453125 Z M 744.980469 371.277344 C 745.320312 371.613281 745.320312 372.171875 744.980469 372.511719 L 718.113281 399.382812 C 717.777344 399.722656 717.21875 399.722656 716.878906 399.382812 L 706.035156 388.539062 C 705.699219 388.203125 705.699219 387.644531 706.035156 387.304688 L 709.246094 384.09375 C 709.585938 383.753906 710.144531 383.753906 710.480469 384.09375 L 715.71875 389.328125 C 716.695312 390.308594 718.296875 390.308594 719.277344 389.328125 L 740.535156 368.066406 C 740.871094 367.726562 741.429688 367.726562 741.769531 368.066406 Z M 744.980469 371.277344 " fill-opacity="1" fill-rule="evenodd"/></g><g clip-path="url(#e7cdd4acaa)"><path fill="#004aad" d="M 628.667969 625.890625 C 628.667969 627.273438 628.601562 628.648438 628.464844 630.023438 C 628.332031 631.398438 628.128906 632.761719 627.859375 634.117188 C 627.589844 635.472656 627.253906 636.808594 626.855469 638.128906 C 626.453125 639.453125 625.988281 640.75 625.460938 642.027344 C 624.933594 643.300781 624.34375 644.546875 623.691406 645.765625 C 623.039062 646.984375 622.332031 648.167969 621.5625 649.316406 C 620.796875 650.460938 619.976562 651.570312 619.097656 652.636719 C 618.222656 653.707031 617.296875 654.726562 616.320312 655.703125 C 615.34375 656.679688 614.324219 657.605469 613.253906 658.480469 C 612.1875 659.359375 611.082031 660.179688 609.933594 660.945312 C 608.785156 661.714844 607.601562 662.421875 606.382812 663.074219 C 605.164062 663.722656 603.917969 664.3125 602.644531 664.84375 C 601.367188 665.371094 600.070312 665.835938 598.746094 666.238281 C 597.425781 666.636719 596.089844 666.972656 594.734375 667.242188 C 593.378906 667.511719 592.015625 667.714844 590.640625 667.847656 C 589.265625 667.984375 587.890625 668.050781 586.507812 668.050781 C 585.128906 668.050781 583.75 667.984375 582.375 667.847656 C 581.003906 667.714844 579.636719 667.511719 578.285156 667.242188 C 576.929688 666.972656 575.589844 666.636719 574.269531 666.238281 C 572.949219 665.835938 571.652344 665.371094 570.375 664.84375 C 569.097656 664.3125 567.851562 663.722656 566.632812 663.074219 C 565.417969 662.421875 564.234375 661.714844 563.085938 660.945312 C 561.9375 660.179688 560.828125 659.359375 559.761719 658.480469 C 558.695312 657.605469 557.671875 656.679688 556.695312 655.703125 C 555.71875 654.726562 554.792969 653.707031 553.917969 652.636719 C 553.042969 651.570312 552.222656 650.460938 551.453125 649.316406 C 550.6875 648.167969 549.976562 646.984375 549.328125 645.765625 C 548.675781 644.546875 548.085938 643.300781 547.558594 642.027344 C 547.027344 640.75 546.566406 639.453125 546.164062 638.128906 C 545.761719 636.808594 545.429688 635.472656 545.160156 634.117188 C 544.890625 632.761719 544.6875 631.398438 544.550781 630.023438 C 544.414062 628.648438 544.347656 627.273438 544.347656 625.890625 C 544.347656 624.511719 544.414062 623.132812 544.550781 621.757812 C 544.6875 620.386719 544.890625 619.019531 545.160156 617.667969 C 545.429688 616.3125 545.761719 614.972656 546.164062 613.652344 C 546.566406 612.332031 547.027344 611.03125 547.558594 609.757812 C 548.085938 608.480469 548.675781 607.234375 549.328125 606.015625 C 549.976562 604.800781 550.6875 603.617188 551.453125 602.46875 C 552.222656 601.320312 553.042969 600.210938 553.917969 599.144531 C 554.792969 598.078125 555.71875 597.054688 556.695312 596.078125 C 557.671875 595.101562 558.695312 594.175781 559.761719 593.300781 C 560.828125 592.425781 561.9375 591.601562 563.085938 590.835938 C 564.234375 590.070312 565.417969 589.359375 566.632812 588.710938 C 567.851562 588.058594 569.097656 587.46875 570.375 586.941406 C 571.652344 586.410156 572.949219 585.945312 574.269531 585.546875 C 575.589844 585.144531 576.929688 584.808594 578.285156 584.539062 C 579.636719 584.273438 581.003906 584.070312 582.375 583.933594 C 583.75 583.796875 585.128906 583.730469 586.507812 583.730469 C 587.890625 583.730469 589.265625 583.796875 590.640625 583.933594 C 592.015625 584.070312 593.378906 584.273438 594.734375 584.539062 C 596.089844 584.808594 597.425781 585.144531 598.746094 585.546875 C 600.070312 585.945312 601.367188 586.410156 602.644531 586.941406 C 603.917969 587.46875 605.164062 588.058594 606.382812 588.710938 C 607.601562 589.359375 608.785156 590.070312 609.933594 590.835938 C 611.082031 591.601562 612.1875 592.425781 613.253906 593.300781 C 614.324219 594.175781 615.34375 595.101562 616.320312 596.078125 C 617.296875 597.054688 618.222656 598.078125 619.097656 599.144531 C 619.976562 600.210938 620.796875 601.320312 621.5625 602.46875 C 622.332031 603.617188 623.039062 604.800781 623.691406 606.015625 C 624.34375 607.234375 624.933594 608.480469 625.460938 609.757812 C 625.988281 611.03125 626.453125 612.332031 626.855469 613.652344 C 627.253906 614.972656 627.589844 616.3125 627.859375 617.667969 C 628.128906 619.019531 628.332031 620.386719 628.464844 621.757812 C 628.601562 623.132812 628.667969 624.511719 628.667969 625.890625 Z M 628.667969 625.890625 " fill-opacity="1" fill-rule="nonzero"/></g><g clip-path="url(#5a2ffd08fe)"><path fill="#ffffff" d="M 613.660156 606.8125 C 613.605469 606.8125 613.546875 606.820312 613.488281 606.835938 L 606.394531 608.710938 C 606.046875 608.796875 605.84375 609.152344 605.9375 609.5 L 606.320312 610.910156 L 604.507812 611.398438 C 600.074219 611.390625 595.644531 611.375 591.210938 611.371094 C 591.199219 611.367188 591.191406 611.367188 591.179688 611.371094 C 590.492188 611.402344 589.839844 611.6875 589.347656 612.160156 C 589.332031 612.175781 589.316406 612.1875 589.300781 612.203125 C 588.921875 612.578125 588.542969 612.957031 588.164062 613.332031 C 587.785156 613.710938 587.402344 614.085938 587.023438 614.464844 C 586.644531 614.839844 586.265625 615.21875 585.886719 615.59375 C 585.503906 615.96875 585.128906 616.347656 584.746094 616.726562 C 584.367188 617.097656 583.988281 617.476562 583.605469 617.851562 C 583.582031 617.875 583.558594 617.898438 583.539062 617.921875 C 583.1875 617.699219 582.800781 617.523438 582.382812 617.410156 C 581.792969 617.253906 581.195312 617.230469 580.628906 617.320312 C 578.914062 617.59375 577.417969 618.90625 576.925781 620.730469 C 576.109375 623.765625 577.308594 626.574219 578.648438 628.582031 C 579.996094 630.589844 581.535156 631.867188 581.535156 631.867188 C 581.683594 631.988281 581.875 632.039062 582.0625 632.007812 C 582.0625 632.007812 582.199219 631.984375 582.417969 631.933594 C 582.640625 631.886719 582.957031 631.808594 583.339844 631.699219 C 583.71875 631.589844 584.164062 631.449219 584.65625 631.265625 C 585.144531 631.085938 585.671875 630.863281 586.214844 630.59375 C 586.757812 630.328125 587.316406 630.011719 587.863281 629.644531 C 588 629.554688 588.132812 629.457031 588.269531 629.359375 C 588.402344 629.257812 588.535156 629.15625 588.667969 629.050781 C 588.796875 628.945312 588.929688 628.835938 589.054688 628.722656 C 589.1875 628.609375 589.3125 628.492188 589.433594 628.371094 C 589.496094 628.308594 589.554688 628.246094 589.617188 628.183594 C 589.679688 628.121094 589.738281 628.058594 589.796875 627.996094 C 589.839844 627.945312 589.882812 627.898438 589.921875 627.851562 C 589.984375 627.832031 590.042969 627.8125 590.101562 627.789062 L 598.84375 625.445312 C 599.78125 625.234375 600.394531 624.648438 600.9375 624.355469 C 600.953125 624.351562 600.960938 624.34375 600.972656 624.339844 C 602.980469 623.105469 604.984375 621.871094 606.992188 620.636719 L 608.828125 620.144531 L 609.207031 621.527344 C 609.300781 621.875 609.65625 622.078125 610.003906 621.988281 L 617.097656 620.113281 C 617.445312 620.023438 617.648438 619.667969 617.554688 619.320312 L 614.285156 607.292969 C 614.210938 607.011719 613.953125 606.8125 613.660156 606.8125 Z M 586.835938 607.472656 C 583.226562 607.410156 579.605469 608.304688 576.464844 610.132812 L 576.460938 610.132812 C 569.664062 613.941406 565.578125 621.882812 566.476562 629.621094 C 566.503906 629.988281 566.832031 630.261719 567.195312 630.21875 C 567.5625 630.175781 567.820312 629.835938 567.761719 629.472656 C 566.933594 622.277344 570.78125 614.792969 577.101562 611.257812 L 577.105469 611.257812 L 577.113281 611.253906 C 582.101562 608.347656 588.46875 607.972656 593.777344 610.242188 C 594.109375 610.394531 594.5 610.242188 594.640625 609.910156 C 594.785156 609.574219 594.625 609.1875 594.289062 609.054688 C 592.152344 608.136719 589.863281 607.621094 587.554688 607.5 L 587.554688 607.503906 C 587.3125 607.488281 587.074219 607.480469 586.835938 607.472656 Z M 613.203125 608.253906 L 616.132812 619.03125 L 610.289062 620.574219 L 607.359375 609.792969 L 609.652344 609.1875 L 609.925781 610.191406 L 610.324219 611.65625 C 610.410156 612.007812 610.773438 612.222656 611.125 612.125 C 611.476562 612.03125 611.679688 611.664062 611.574219 611.316406 L 611.175781 609.851562 L 610.90625 608.859375 Z M 606.660156 612.164062 L 608.488281 618.894531 L 606.625 619.398438 C 606.566406 619.40625 606.511719 619.425781 606.457031 619.449219 C 606.453125 619.453125 606.445312 619.460938 606.4375 619.464844 C 606.433594 619.46875 606.429688 619.46875 606.421875 619.46875 C 606.40625 619.480469 606.390625 619.488281 606.375 619.496094 C 604.359375 620.738281 602.339844 621.980469 600.324219 623.21875 C 600.316406 623.21875 600.3125 623.21875 600.3125 623.222656 C 599.589844 623.617188 599.066406 624.0625 598.570312 624.183594 C 598.550781 624.191406 598.53125 624.191406 598.511719 624.199219 L 598.503906 624.203125 C 598.492188 624.203125 598.480469 624.207031 598.46875 624.210938 L 589.75 626.542969 C 589.726562 626.550781 589.707031 626.5625 589.683594 626.570312 C 589.015625 626.828125 588.179688 626.65625 587.769531 626.097656 C 587.761719 626.085938 587.753906 626.078125 587.746094 626.066406 C 587.152344 625.355469 587.480469 624.023438 588.324219 623.679688 C 589.730469 623.25 588.898438 623.515625 590.414062 623.09375 L 590.417969 623.089844 L 593.261719 622.328125 C 594.785156 621.921875 595.6875 620.335938 595.28125 618.8125 C 594.972656 617.667969 594.007812 616.855469 592.902344 616.699219 C 592.535156 616.644531 592.148438 616.664062 591.769531 616.773438 L 589.363281 617.441406 C 589.296875 617.453125 589.234375 617.472656 589.175781 617.503906 C 589.078125 617.550781 589 617.613281 588.9375 617.699219 C 588.710938 617.925781 588.484375 618.152344 588.257812 618.382812 C 588.074219 618.566406 587.890625 618.753906 587.707031 618.9375 C 586.792969 618.902344 585.882812 619.175781 585.101562 619.699219 C 584.9375 619.367188 584.738281 619.0625 584.507812 618.789062 C 584.511719 618.78125 584.515625 618.78125 584.519531 618.777344 C 584.898438 618.398438 585.28125 618.023438 585.660156 617.644531 C 586.039062 617.269531 586.417969 616.894531 586.796875 616.515625 C 587.179688 616.140625 587.558594 615.761719 587.9375 615.386719 C 588.316406 615.007812 588.695312 614.632812 589.078125 614.253906 C 589.457031 613.878906 589.835938 613.5 590.214844 613.125 C 590.21875 613.121094 590.21875 613.117188 590.222656 613.113281 C 590.488281 612.851562 590.867188 612.683594 591.234375 612.667969 C 595.65625 612.667969 600.078125 612.683594 604.503906 612.695312 C 604.578125 612.699219 604.648438 612.699219 604.71875 612.679688 C 604.726562 612.679688 604.730469 612.679688 604.734375 612.675781 C 604.742188 612.675781 604.75 612.675781 604.761719 612.671875 L 604.78125 612.667969 Z M 611.546875 613.035156 C 611.179688 613.023438 610.871094 613.3125 610.871094 613.679688 C 610.871094 614.046875 611.179688 614.339844 611.546875 614.328125 C 611.914062 614.339844 612.21875 614.046875 612.21875 613.679688 C 612.21875 613.3125 611.914062 613.023438 611.546875 613.035156 Z M 592.585938 617.964844 C 593.246094 617.988281 593.84375 618.449219 594.03125 619.144531 C 594.257812 620.007812 593.773438 620.847656 592.929688 621.078125 L 591.414062 621.480469 C 591.371094 621.382812 591.320312 621.285156 591.273438 621.191406 C 591.132812 620.933594 590.976562 620.695312 590.789062 620.476562 C 590.609375 620.253906 590.402344 620.050781 590.175781 619.867188 C 589.953125 619.683594 589.707031 619.523438 589.445312 619.390625 C 589.363281 619.347656 589.28125 619.3125 589.199219 619.273438 C 589.402344 619.070312 589.601562 618.867188 589.804688 618.664062 L 592.117188 618.023438 C 592.273438 617.980469 592.429688 617.960938 592.585938 617.964844 Z M 581.273438 618.566406 C 581.53125 618.5625 581.792969 618.597656 582.050781 618.667969 C 583.089844 618.945312 583.90625 619.777344 584.195312 620.894531 C 584.320312 621.382812 584.933594 621.546875 585.285156 621.1875 C 586.097656 620.363281 587.226562 620.046875 588.273438 620.320312 C 588.476562 620.375 588.671875 620.449219 588.855469 620.546875 C 589.035156 620.636719 589.207031 620.746094 589.359375 620.875 C 589.519531 621 589.660156 621.144531 589.789062 621.300781 C 589.917969 621.457031 590.03125 621.625 590.132812 621.808594 C 590.132812 621.8125 590.132812 621.816406 590.140625 621.824219 L 590.078125 621.839844 L 590.074219 621.839844 C 590.074219 621.839844 590.074219 621.839844 590.074219 621.84375 C 588.535156 622.269531 589.445312 621.984375 587.90625 622.453125 C 587.890625 622.460938 587.871094 622.464844 587.855469 622.472656 C 586.128906 623.160156 585.566406 625.445312 586.746094 626.882812 C 587.097656 627.359375 587.574219 627.675781 588.101562 627.84375 C 588.019531 627.914062 587.9375 627.984375 587.855469 628.046875 C 587.742188 628.140625 587.621094 628.234375 587.503906 628.320312 C 587.382812 628.410156 587.261719 628.492188 587.136719 628.578125 C 586.648438 628.90625 586.144531 629.191406 585.644531 629.4375 C 585.148438 629.683594 584.660156 629.886719 584.207031 630.054688 C 583.753906 630.226562 583.335938 630.355469 582.980469 630.460938 C 582.632812 630.558594 582.351562 630.628906 582.152344 630.671875 C 581.867188 630.417969 580.808594 629.472656 579.730469 627.867188 C 578.5 626.027344 577.5 623.605469 578.183594 621.074219 C 578.589844 619.558594 579.894531 618.578125 581.277344 618.566406 Z M 605.496094 622.984375 C 605.085938 623 604.789062 623.382812 604.878906 623.78125 C 606.390625 630.734375 603.464844 638.425781 597.71875 642.617188 L 597.707031 642.625 C 592 646.980469 583.792969 647.570312 577.511719 644.089844 C 577.199219 643.910156 576.796875 644.023438 576.617188 644.339844 C 576.445312 644.65625 576.5625 645.058594 576.882812 645.226562 C 583.632812 648.960938 592.355469 648.335938 598.492188 643.65625 C 604.671875 639.148438 607.773438 630.984375 606.152344 623.507812 C 606.085938 623.199219 605.808594 622.980469 605.496094 622.984375 Z M 592.082031 629.9375 C 591.710938 629.949219 591.339844 630.035156 590.984375 630.207031 C 590.976562 630.214844 590.960938 630.21875 590.953125 630.226562 C 588.371094 631.675781 585.816406 633.15625 583.253906 634.625 C 583.050781 633.246094 581.855469 632.1875 580.425781 632.183594 L 568.078125 632.144531 C 567.957031 632.144531 567.839844 632.152344 567.71875 632.167969 C 567.714844 632.167969 567.710938 632.167969 567.707031 632.171875 C 567.703125 632.171875 567.695312 632.171875 567.691406 632.171875 C 567.660156 632.179688 567.628906 632.179688 567.597656 632.1875 C 567.578125 632.191406 567.5625 632.195312 567.542969 632.203125 C 567.515625 632.207031 567.492188 632.210938 567.464844 632.21875 C 567.441406 632.222656 567.417969 632.230469 567.394531 632.234375 C 567.375 632.242188 567.355469 632.25 567.335938 632.253906 C 567.308594 632.257812 567.28125 632.269531 567.253906 632.273438 C 567.238281 632.28125 567.21875 632.289062 567.203125 632.296875 C 567.171875 632.300781 567.140625 632.3125 567.109375 632.324219 C 567.101562 632.328125 567.089844 632.332031 567.082031 632.339844 C 567.046875 632.355469 567.003906 632.363281 566.96875 632.382812 L 566.964844 632.382812 C 566.960938 632.382812 566.960938 632.382812 566.960938 632.382812 C 566.851562 632.429688 566.738281 632.484375 566.632812 632.546875 L 564.421875 633.808594 L 563.863281 634.128906 L 563.722656 633.609375 C 563.625 633.265625 563.273438 633.058594 562.925781 633.152344 L 555.832031 635.023438 C 555.484375 635.117188 555.277344 635.46875 555.371094 635.8125 L 558.640625 647.84375 C 558.738281 648.191406 559.089844 648.398438 559.4375 648.304688 L 566.535156 646.429688 C 566.878906 646.339844 567.085938 645.984375 566.992188 645.640625 L 566.785156 644.882812 L 567.636719 644.390625 L 569.847656 643.125 C 569.964844 643.054688 570.089844 643.007812 570.214844 642.976562 C 570.34375 642.945312 570.472656 642.921875 570.609375 642.921875 L 579.3125 642.945312 C 579.816406 642.96875 580.320312 642.867188 580.765625 642.640625 C 580.777344 642.632812 580.785156 642.625 580.792969 642.621094 C 584.980469 640.230469 589.164062 637.824219 593.347656 635.429688 C 594.542969 634.871094 595.28125 633.535156 594.953125 632.203125 C 594.691406 630.890625 593.5 629.992188 592.238281 629.957031 C 592.183594 629.953125 592.132812 629.953125 592.078125 629.957031 Z M 592.03125 631.253906 C 592.753906 631.21875 593.554688 631.738281 593.691406 632.445312 C 593.691406 632.457031 593.695312 632.46875 593.699219 632.480469 C 593.875 633.167969 593.433594 633.960938 592.769531 634.253906 C 592.75 634.261719 592.726562 634.273438 592.707031 634.285156 C 588.53125 636.675781 584.355469 639.078125 580.175781 641.464844 C 579.929688 641.585938 579.640625 641.648438 579.367188 641.628906 C 579.363281 641.628906 579.355469 641.628906 579.355469 641.628906 C 579.34375 641.628906 579.332031 641.628906 579.316406 641.628906 L 579.308594 641.628906 C 579.304688 641.628906 579.300781 641.628906 579.296875 641.628906 L 570.613281 641.609375 C 570.539062 641.609375 570.460938 641.609375 570.382812 641.617188 C 570.347656 641.613281 570.316406 641.617188 570.28125 641.621094 C 570.164062 641.636719 570.042969 641.65625 569.929688 641.6875 C 569.914062 641.695312 569.898438 641.695312 569.882812 641.699219 C 569.871094 641.699219 569.859375 641.707031 569.847656 641.707031 C 569.730469 641.738281 569.613281 641.777344 569.503906 641.824219 C 569.472656 641.835938 569.441406 641.851562 569.417969 641.867188 C 569.34375 641.898438 569.273438 641.9375 569.203125 641.976562 L 567 643.242188 L 566.4375 643.5625 L 564.21875 635.398438 L 565.070312 634.910156 L 567.28125 633.644531 C 567.351562 633.605469 567.425781 633.570312 567.5 633.542969 C 567.527344 633.527344 567.5625 633.519531 567.589844 633.503906 C 567.617188 633.5 567.644531 633.488281 567.667969 633.488281 C 567.691406 633.480469 567.710938 633.476562 567.730469 633.472656 C 567.769531 633.460938 567.8125 633.453125 567.851562 633.453125 C 567.925781 633.4375 567.996094 633.4375 568.074219 633.4375 L 580.421875 633.46875 C 581.296875 633.472656 581.984375 634.15625 581.988281 635.027344 C 581.988281 635.894531 581.316406 636.566406 580.4375 636.566406 L 574.265625 636.546875 L 572.722656 636.542969 C 572.355469 636.527344 572.046875 636.820312 572.046875 637.1875 C 572.046875 637.554688 572.347656 637.851562 572.714844 637.835938 L 574.261719 637.839844 L 580.433594 637.859375 C 581.5625 637.863281 582.546875 637.203125 583.003906 636.246094 C 583.019531 636.242188 583.035156 636.234375 583.046875 636.226562 C 585.886719 634.605469 588.710938 632.964844 591.558594 631.367188 C 591.707031 631.292969 591.867188 631.257812 592.03125 631.246094 Z M 562.640625 634.546875 L 565.570312 645.328125 L 559.726562 646.871094 L 556.796875 636.089844 L 559.089844 635.484375 L 559.363281 636.484375 L 559.761719 637.949219 C 559.847656 638.304688 560.210938 638.519531 560.5625 638.421875 C 560.914062 638.328125 561.117188 637.960938 561.011719 637.613281 L 560.617188 636.148438 L 560.34375 635.15625 Z M 560.988281 639.328125 C 560.128906 639.339844 560.128906 640.617188 560.988281 640.625 C 561.839844 640.617188 561.839844 639.339844 560.988281 639.328125 Z M 560.988281 639.328125 " fill-opacity="1" fill-rule="nonzero"/></g><g clip-path="url(#7df496d578)"><path fill="#004aad" d="M 323.785156 648.988281 C 323.785156 650.367188 323.71875 651.746094 323.582031 653.121094 C 323.445312 654.496094 323.246094 655.859375 322.976562 657.214844 C 322.707031 658.566406 322.371094 659.90625 321.96875 661.226562 C 321.570312 662.546875 321.105469 663.847656 320.574219 665.121094 C 320.046875 666.398438 319.457031 667.644531 318.808594 668.863281 C 318.15625 670.082031 317.445312 671.261719 316.679688 672.410156 C 315.914062 673.558594 315.089844 674.667969 314.214844 675.734375 C 313.339844 676.800781 312.414062 677.824219 311.4375 678.800781 C 310.460938 679.777344 309.4375 680.703125 308.371094 681.578125 C 307.304688 682.453125 306.195312 683.277344 305.046875 684.042969 C 303.898438 684.808594 302.71875 685.519531 301.5 686.171875 C 300.28125 686.820312 299.035156 687.410156 297.757812 687.9375 C 296.484375 688.46875 295.183594 688.933594 293.863281 689.332031 C 292.542969 689.734375 291.203125 690.070312 289.851562 690.339844 C 288.496094 690.609375 287.132812 690.808594 285.757812 690.945312 C 284.382812 691.082031 283.003906 691.148438 281.625 691.148438 C 280.242188 691.148438 278.867188 691.082031 277.492188 690.945312 C 276.117188 690.808594 274.753906 690.609375 273.398438 690.339844 C 272.046875 690.070312 270.707031 689.734375 269.386719 689.332031 C 268.066406 688.933594 266.765625 688.46875 265.492188 687.9375 C 264.214844 687.410156 262.96875 686.820312 261.75 686.171875 C 260.53125 685.519531 259.351562 684.808594 258.203125 684.042969 C 257.054688 683.277344 255.945312 682.453125 254.878906 681.578125 C 253.8125 680.703125 252.789062 679.777344 251.8125 678.800781 C 250.835938 677.824219 249.910156 676.800781 249.035156 675.734375 C 248.160156 674.667969 247.335938 673.558594 246.570312 672.410156 C 245.800781 671.261719 245.09375 670.082031 244.441406 668.863281 C 243.792969 667.644531 243.203125 666.398438 242.671875 665.121094 C 242.144531 663.847656 241.679688 662.546875 241.28125 661.226562 C 240.878906 659.90625 240.542969 658.566406 240.273438 657.214844 C 240.003906 655.859375 239.800781 654.496094 239.667969 653.121094 C 239.53125 651.746094 239.464844 650.367188 239.464844 648.988281 C 239.464844 647.605469 239.53125 646.230469 239.667969 644.855469 C 239.800781 643.480469 240.003906 642.117188 240.273438 640.761719 C 240.542969 639.410156 240.878906 638.070312 241.28125 636.75 C 241.679688 635.429688 242.144531 634.128906 242.671875 632.855469 C 243.203125 631.578125 243.792969 630.332031 244.441406 629.113281 C 245.09375 627.894531 245.800781 626.714844 246.570312 625.566406 C 247.335938 624.417969 248.160156 623.308594 249.035156 622.242188 C 249.910156 621.175781 250.835938 620.152344 251.8125 619.175781 C 252.789062 618.199219 253.8125 617.273438 254.878906 616.398438 C 255.945312 615.523438 257.054688 614.699219 258.203125 613.933594 C 259.351562 613.164062 260.53125 612.457031 261.75 611.804688 C 262.96875 611.15625 264.214844 610.566406 265.492188 610.035156 C 266.765625 609.507812 268.066406 609.042969 269.386719 608.644531 C 270.707031 608.242188 272.046875 607.90625 273.398438 607.636719 C 274.753906 607.367188 276.117188 607.164062 277.492188 607.03125 C 278.867188 606.894531 280.242188 606.828125 281.625 606.828125 C 283.003906 606.828125 284.382812 606.894531 285.757812 607.03125 C 287.132812 607.164062 288.496094 607.367188 289.851562 607.636719 C 291.203125 607.90625 292.542969 608.242188 293.863281 608.644531 C 295.183594 609.042969 296.484375 609.507812 297.757812 610.035156 C 299.035156 610.566406 300.28125 611.15625 301.5 611.804688 C 302.71875 612.457031 303.898438 613.164062 305.046875 613.933594 C 306.195312 614.699219 307.304688 615.523438 308.371094 616.398438 C 309.4375 617.273438 310.460938 618.199219 311.4375 619.175781 C 312.414062 620.152344 313.339844 621.175781 314.214844 622.242188 C 315.089844 623.308594 315.914062 624.417969 316.679688 625.566406 C 317.445312 626.714844 318.15625 627.894531 318.808594 629.113281 C 319.457031 630.332031 320.046875 631.578125 320.574219 632.855469 C 321.105469 634.128906 321.570312 635.429688 321.96875 636.75 C 322.371094 638.070312 322.707031 639.410156 322.976562 640.761719 C 323.246094 642.117188 323.445312 643.480469 323.582031 644.855469 C 323.71875 646.230469 323.785156 647.605469 323.785156 648.988281 Z M 323.785156 648.988281 " fill-opacity="1" fill-rule="nonzero"/></g><g clip-path="url(#92107abb57)"><path fill="#ffffff" d="M 281.617188 619.945312 C 265.59375 619.945312 252.582031 632.957031 252.582031 648.980469 C 252.582031 665.007812 265.59375 678.015625 281.617188 678.015625 C 297.644531 678.015625 310.652344 665.007812 310.652344 648.980469 C 310.652344 632.957031 297.644531 619.945312 281.617188 619.945312 Z M 290.511719 653.769531 C 290.390625 653.59375 290.183594 653.488281 289.96875 653.488281 C 289.96875 653.488281 287.597656 653.488281 285.65625 653.488281 C 285.167969 653.488281 284.699219 653.292969 284.355469 652.949219 C 284.011719 652.605469 283.820312 652.136719 283.820312 651.652344 L 283.820312 640.523438 C 283.820312 640.035156 284.011719 639.566406 284.355469 639.222656 C 284.699219 638.878906 285.167969 638.6875 285.65625 638.6875 L 294.132812 638.6875 C 294.621094 638.6875 295.089844 638.878906 295.433594 639.222656 C 295.777344 639.566406 295.96875 640.035156 295.96875 640.523438 L 295.96875 652.894531 C 295.96875 653.609375 295.792969 654.316406 295.453125 654.949219 C 294.542969 656.640625 292.816406 659.855469 291.847656 661.660156 C 291.53125 662.25 290.917969 662.613281 290.25 662.613281 L 290.246094 662.613281 C 289.640625 662.613281 289.070312 662.316406 288.722656 661.820312 C 288.375 661.320312 288.289062 660.683594 288.5 660.113281 C 289.449219 657.519531 290.59375 654.382812 290.59375 654.382812 C 290.667969 654.179688 290.636719 653.949219 290.511719 653.769531 Z M 273.960938 653.769531 C 273.835938 653.59375 273.632812 653.488281 273.414062 653.488281 C 273.414062 653.488281 271.046875 653.488281 269.101562 653.488281 C 268.617188 653.488281 268.152344 653.292969 267.804688 652.949219 C 267.460938 652.605469 267.269531 652.136719 267.269531 651.652344 L 267.269531 640.523438 C 267.269531 640.035156 267.460938 639.566406 267.804688 639.222656 C 268.152344 638.878906 268.617188 638.6875 269.101562 638.6875 L 277.582031 638.6875 C 278.070312 638.6875 278.535156 638.878906 278.882812 639.222656 C 279.226562 639.566406 279.417969 640.035156 279.417969 640.523438 L 279.417969 652.894531 C 279.417969 653.609375 279.242188 654.316406 278.902344 654.949219 C 277.992188 656.640625 276.265625 659.855469 275.296875 661.660156 C 274.980469 662.25 274.367188 662.613281 273.695312 662.613281 C 273.089844 662.613281 272.519531 662.316406 272.171875 661.820312 C 271.824219 661.320312 271.738281 660.683594 271.949219 660.113281 C 272.894531 657.519531 274.042969 654.382812 274.042969 654.382812 C 274.117188 654.179688 274.085938 653.949219 273.960938 653.769531 Z M 273.960938 653.769531 " fill-opacity="1" fill-rule="nonzero"/></g><g clip-path="url(#812fc1e7bb)"><path fill="#004aad" d="M 197.296875 472.332031 C 197.296875 413.511719 159.011719 365.855469 111.855469 365.855469 C 64.699219 365.855469 26.414062 413.511719 26.414062 472.332031 C 26.414062 481.503906 64.699219 488.980469 111.855469 488.980469 C 159.011719 488.980469 197.296875 481.503906 197.296875 472.332031 Z M 111.855469 268.550781 C 137.578125 268.550781 158.414062 289.386719 158.414062 315.109375 C 158.414062 340.832031 137.578125 361.667969 111.855469 361.667969 C 86.132812 361.667969 65.296875 340.832031 65.296875 315.109375 C 65.296875 289.386719 86.132812 268.550781 111.855469 268.550781 Z M 111.855469 268.550781 " fill-opacity="1" fill-rule="evenodd"/></g><path stroke-linecap="round" transform="matrix(-0.164853, 0.83672, -0.83672, -0.164853, 149.281035, 489.38882)" fill="none" stroke-linejoin="miter" d="M 4.732038 8.320444 C 20.970331 1.881174 37.209907 1.893555 53.450764 8.357588 " stroke="#004aad" stroke-width="7" stroke-opacity="1" stroke-miterlimit="4"/><path stroke-linecap="round" transform="matrix(0.742579, 0.419349, -0.419349, 0.742579, 144.878917, 486.013124)" fill="none" stroke-linejoin="miter" d="M 4.769706 4.627016 C 22.850555 12.201768 40.927856 12.187794 59.00785 4.586827 " stroke="#004aad" stroke-width="7" stroke-opacity="1" stroke-miterlimit="4"/></svg>