<svg xmlns="http://www.w3.org/2000/svg" xmlns:xlink="http://www.w3.org/1999/xlink" width="1024" zoomAndPan="magnify" viewBox="0 0 768 767.999994" height="1024" preserveAspectRatio="xMidYMid meet" version="1.0"><defs><clipPath id="882793729f"><path d="M 109.113281 197 L 658.863281 197 L 658.863281 597 L 109.113281 597 Z M 109.113281 197 " clip-rule="nonzero"/></clipPath><clipPath id="6fd8c3aaa8"><path d="M 221 76.800781 L 547 76.800781 L 547 484 L 221 484 Z M 221 76.800781 " clip-rule="nonzero"/></clipPath><clipPath id="d18932df2a"><path d="M 230 582 L 538 582 L 538 667.050781 L 230 667.050781 Z M 230 582 " clip-rule="nonzero"/></clipPath></defs><rect x="-76.8" width="921.6" fill="#ffffff" y="-76.799999" height="921.599993" fill-opacity="1"/><rect x="-76.8" width="921.6" fill="#ffffff" y="-76.799999" height="921.599993" fill-opacity="1"/><g clip-path="url(#882793729f)"><path fill="#004aad" d="M 613.769531 596.144531 L 154.199219 596.144531 C 129.328125 596.144531 109.105469 575.921875 109.105469 551.050781 L 109.105469 242.402344 C 109.105469 217.53125 129.328125 197.308594 154.199219 197.308594 L 228.578125 197.308594 C 232.304688 197.308594 235.332031 200.332031 235.332031 204.0625 C 235.332031 207.789062 232.304688 210.816406 228.578125 210.816406 L 154.199219 210.816406 C 136.789062 210.816406 122.628906 224.988281 122.628906 242.402344 L 122.628906 551.050781 C 122.628906 568.464844 136.785156 582.636719 154.199219 582.636719 L 613.769531 582.636719 C 631.183594 582.636719 645.34375 568.464844 645.34375 551.066406 L 645.34375 242.402344 C 645.34375 224.988281 631.183594 210.816406 613.769531 210.816406 L 539.394531 210.816406 C 535.664062 210.816406 532.640625 207.789062 532.640625 204.0625 C 532.640625 200.332031 535.664062 197.308594 539.394531 197.308594 L 613.769531 197.308594 C 638.640625 197.308594 658.863281 217.542969 658.863281 242.402344 L 658.863281 551.050781 C 658.863281 575.925781 638.644531 596.144531 613.769531 596.144531 Z M 613.769531 596.144531 " fill-opacity="1" fill-rule="evenodd"/></g><g clip-path="url(#6fd8c3aaa8)"><path fill="#004aad" d="M 235.332031 469.679688 L 532.640625 469.679688 L 532.640625 90.425781 L 235.332031 90.425781 Z M 539.394531 483.1875 L 228.5625 483.1875 C 224.832031 483.1875 221.808594 480.164062 221.808594 476.433594 L 221.808594 83.671875 C 221.808594 79.941406 224.832031 76.917969 228.5625 76.917969 L 539.394531 76.917969 C 543.125 76.917969 546.148438 79.941406 546.148438 83.671875 L 546.148438 476.433594 C 546.148438 478.222656 545.445312 479.945312 544.183594 481.207031 C 542.921875 482.480469 541.199219 483.1875 539.394531 483.1875 Z M 539.394531 483.1875 " fill-opacity="1" fill-rule="evenodd"/></g><path fill="#004aad" d="M 505.570312 271.019531 L 262.402344 271.019531 C 258.671875 271.019531 255.648438 267.996094 255.648438 264.265625 C 255.648438 260.535156 258.671875 257.511719 262.402344 257.511719 L 505.570312 257.511719 C 509.300781 257.511719 512.324219 260.535156 512.324219 264.265625 C 512.324219 267.996094 509.300781 271.019531 505.570312 271.019531 Z M 505.570312 271.019531 " fill-opacity="1" fill-rule="evenodd"/><path fill="#004aad" d="M 269.15625 211.65625 L 357.917969 211.65625 L 357.917969 122.878906 L 269.15625 122.878906 Z M 364.6875 225.164062 L 262.414062 225.164062 C 258.683594 225.164062 255.660156 222.140625 255.660156 218.410156 L 255.660156 116.125 C 255.660156 112.394531 258.683594 109.371094 262.414062 109.371094 L 364.699219 109.371094 C 368.429688 109.371094 371.453125 112.394531 371.453125 116.125 L 371.453125 218.410156 C 371.441406 222.140625 368.414062 225.164062 364.6875 225.164062 Z M 364.6875 225.164062 " fill-opacity="1" fill-rule="evenodd"/><path fill="#004aad" d="M 505.570312 122.890625 L 390.007812 122.890625 C 386.277344 122.890625 383.253906 119.867188 383.253906 116.136719 C 383.253906 112.410156 386.277344 109.382812 390.007812 109.382812 L 505.570312 109.382812 C 509.300781 109.382812 512.324219 112.410156 512.324219 116.136719 C 512.324219 119.855469 509.300781 122.890625 505.570312 122.890625 Z M 505.570312 122.890625 " fill-opacity="1" fill-rule="evenodd"/><path fill="#004aad" d="M 505.570312 174.019531 L 390.007812 174.019531 C 386.277344 174.019531 383.253906 170.996094 383.253906 167.265625 C 383.253906 163.539062 386.277344 160.511719 390.007812 160.511719 L 505.570312 160.511719 C 509.300781 160.511719 512.324219 163.539062 512.324219 167.265625 C 512.324219 170.996094 509.300781 174.019531 505.570312 174.019531 Z M 505.570312 174.019531 " fill-opacity="1" fill-rule="evenodd"/><path fill="#004aad" d="M 505.570312 225.164062 L 390.007812 225.164062 C 386.277344 225.164062 383.253906 222.140625 383.253906 218.410156 C 383.253906 214.679688 386.277344 211.65625 390.007812 211.65625 L 505.570312 211.65625 C 509.300781 211.65625 512.324219 214.679688 512.324219 218.410156 C 512.324219 222.140625 509.300781 225.164062 505.570312 225.164062 Z M 505.570312 225.164062 " fill-opacity="1" fill-rule="evenodd"/><path fill="#004aad" d="M 505.570312 330.925781 L 262.402344 330.925781 C 258.671875 330.925781 255.648438 327.898438 255.648438 324.171875 C 255.648438 320.441406 258.671875 317.417969 262.402344 317.417969 L 505.570312 317.417969 C 509.300781 317.417969 512.324219 320.441406 512.324219 324.171875 C 512.324219 327.898438 509.300781 330.925781 505.570312 330.925781 Z M 505.570312 330.925781 " fill-opacity="1" fill-rule="evenodd"/><path fill="#004aad" d="M 505.570312 390.828125 L 262.402344 390.828125 C 258.671875 390.828125 255.648438 387.804688 255.648438 384.074219 C 255.648438 380.34375 258.671875 377.320312 262.402344 377.320312 L 505.570312 377.320312 C 509.300781 377.320312 512.324219 380.34375 512.324219 384.074219 C 512.324219 387.804688 509.300781 390.828125 505.570312 390.828125 Z M 505.570312 390.828125 " fill-opacity="1" fill-rule="evenodd"/><path fill="#004aad" d="M 505.570312 450.730469 L 262.402344 450.730469 C 258.671875 450.730469 255.648438 447.707031 255.648438 443.976562 C 255.648438 440.25 258.671875 437.222656 262.402344 437.222656 L 505.570312 437.222656 C 509.300781 437.222656 512.324219 440.25 512.324219 443.976562 C 512.324219 447.707031 509.300781 450.730469 505.570312 450.730469 Z M 505.570312 450.730469 " fill-opacity="1" fill-rule="evenodd"/><path fill="#004aad" d="M 616.523438 243.894531 Z M 616.523438 563.082031 L 151.445312 563.082031 C 145.085938 563.082031 139.933594 557.914062 139.933594 551.566406 L 139.933594 241.914062 C 139.933594 235.566406 145.085938 230.398438 151.445312 230.398438 L 228.574219 230.398438 C 232.304688 230.398438 235.328125 233.425781 235.328125 237.152344 C 235.328125 240.882812 232.304688 243.90625 228.574219 243.90625 L 153.441406 243.90625 L 153.441406 549.574219 L 614.542969 549.574219 L 614.542969 243.894531 L 539.410156 243.894531 C 535.679688 243.894531 532.65625 240.871094 532.65625 237.140625 C 532.65625 233.410156 535.679688 230.386719 539.410156 230.386719 L 616.535156 230.386719 C 622.898438 230.386719 628.050781 235.554688 628.050781 241.902344 L 628.050781 551.554688 C 628.050781 557.914062 622.882812 563.082031 616.523438 563.082031 Z M 616.523438 563.082031 " fill-opacity="1" fill-rule="evenodd"/><g clip-path="url(#d18932df2a)"><path fill="#004aad" d="M 530.660156 667.035156 L 237.308594 667.035156 C 234.273438 667.035156 231.601562 665 230.800781 662.058594 C 229.984375 659.128906 231.246094 656.023438 233.867188 654.460938 C 241.203125 650.097656 247.617188 646.378906 253.273438 643.097656 C 271.746094 632.371094 281.929688 626.457031 286.066406 620.515625 C 289.851562 615.089844 289.851562 607.738281 289.839844 591.628906 L 289.839844 589.375 C 289.839844 585.648438 292.863281 582.621094 296.59375 582.621094 C 300.320312 582.621094 303.347656 585.648438 303.347656 589.375 L 303.347656 591.613281 C 303.359375 609.472656 303.359375 619.335938 297.160156 628.230469 C 291.519531 636.328125 281.605469 642.257812 262.253906 653.5 L 505.75 653.5 C 486.394531 642.257812 476.480469 636.328125 470.839844 628.230469 C 464.628906 619.320312 464.640625 609.476562 464.65625 591.613281 L 464.65625 589.375 C 464.65625 585.648438 467.679688 582.621094 471.410156 582.621094 C 475.140625 582.621094 478.164062 585.648438 478.164062 589.375 L 478.164062 591.628906 C 478.148438 607.738281 478.148438 615.089844 481.933594 620.515625 C 486.054688 626.457031 496.242188 632.371094 514.726562 643.097656 C 520.382812 646.378906 526.785156 650.097656 534.136719 654.460938 C 536.753906 656.007812 538 659.113281 537.199219 662.058594 C 536.359375 665 533.699219 667.035156 530.660156 667.035156 Z M 530.660156 667.035156 " fill-opacity="1" fill-rule="evenodd"/></g></svg>