<svg xmlns="http://www.w3.org/2000/svg" xmlns:xlink="http://www.w3.org/1999/xlink" width="1024" zoomAndPan="magnify" viewBox="0 0 768 767.999994" height="1024" preserveAspectRatio="xMidYMid meet" version="1.0"><defs><clipPath id="fc28848915"><path d="M 156.933594 104.53125 L 611 104.53125 L 611 663.28125 L 156.933594 663.28125 Z M 156.933594 104.53125 " clip-rule="nonzero"/></clipPath></defs><rect x="-76.8" width="921.6" fill="#ffffff" y="-76.799999" height="921.599993" fill-opacity="1"/><rect x="-76.8" width="921.6" fill="#ffffff" y="-76.799999" height="921.599993" fill-opacity="1"/><path fill="#004aad" d="M 209.332031 375.699219 L 383.996094 375.699219 C 389.234375 375.699219 392.730469 372.207031 392.730469 366.964844 C 392.730469 361.726562 389.234375 358.234375 383.996094 358.234375 L 209.332031 358.234375 C 204.09375 358.234375 200.597656 361.726562 200.597656 366.964844 C 200.597656 372.207031 204.09375 375.699219 209.332031 375.699219 Z M 209.332031 375.699219 " fill-opacity="1" fill-rule="nonzero"/><path fill="#004aad" d="M 209.332031 419.363281 L 383.996094 419.363281 C 389.234375 419.363281 392.730469 415.871094 392.730469 410.632812 C 392.730469 405.390625 389.234375 401.898438 383.996094 401.898438 L 209.332031 401.898438 C 204.09375 401.898438 200.597656 405.390625 200.597656 410.632812 C 200.597656 415.871094 204.09375 419.363281 209.332031 419.363281 Z M 209.332031 419.363281 " fill-opacity="1" fill-rule="nonzero"/><path fill="#004aad" d="M 209.332031 463.03125 L 383.996094 463.03125 C 389.234375 463.03125 392.730469 459.539062 392.730469 454.296875 C 392.730469 449.058594 389.234375 445.566406 383.996094 445.566406 L 209.332031 445.566406 C 204.09375 445.566406 200.597656 449.058594 200.597656 454.296875 C 200.597656 459.539062 204.09375 463.03125 209.332031 463.03125 Z M 209.332031 463.03125 " fill-opacity="1" fill-rule="nonzero"/><path fill="#004aad" d="M 480.058594 497.964844 L 357.796875 497.964844 C 352.554688 497.964844 349.0625 501.457031 349.0625 506.695312 C 349.0625 511.9375 352.554688 515.429688 357.796875 515.429688 L 480.058594 515.429688 C 485.300781 515.429688 488.792969 511.9375 488.792969 506.695312 C 488.792969 501.457031 485.300781 497.964844 480.058594 497.964844 Z M 480.058594 497.964844 " fill-opacity="1" fill-rule="nonzero"/><path fill="#004aad" d="M 480.058594 541.628906 L 357.796875 541.628906 C 352.554688 541.628906 349.0625 545.121094 349.0625 550.363281 C 349.0625 555.601562 352.554688 559.097656 357.796875 559.097656 L 480.058594 559.097656 C 485.300781 559.097656 488.792969 555.601562 488.792969 550.363281 C 488.792969 545.121094 485.300781 541.628906 480.058594 541.628906 Z M 480.058594 541.628906 " fill-opacity="1" fill-rule="nonzero"/><path fill="#004aad" d="M 480.058594 585.296875 L 357.796875 585.296875 C 352.554688 585.296875 349.0625 588.789062 349.0625 594.027344 C 349.0625 599.269531 352.554688 602.761719 357.796875 602.761719 L 480.058594 602.761719 C 485.300781 602.761719 488.792969 599.269531 488.792969 594.027344 C 488.792969 588.789062 485.300781 585.296875 480.058594 585.296875 Z M 480.058594 585.296875 " fill-opacity="1" fill-rule="nonzero"/><path fill="#004aad" d="M 480.058594 358.234375 L 427.660156 358.234375 C 422.421875 358.234375 418.929688 361.726562 418.929688 366.964844 C 418.929688 372.207031 422.421875 375.699219 427.660156 375.699219 L 480.058594 375.699219 C 485.300781 375.699219 488.792969 372.207031 488.792969 366.964844 C 488.792969 361.726562 485.300781 358.234375 480.058594 358.234375 Z M 480.058594 358.234375 " fill-opacity="1" fill-rule="nonzero"/><path fill="#004aad" d="M 480.058594 401.898438 L 427.660156 401.898438 C 422.421875 401.898438 418.929688 405.390625 418.929688 410.632812 C 418.929688 415.871094 422.421875 419.363281 427.660156 419.363281 L 480.058594 419.363281 C 485.300781 419.363281 488.792969 415.871094 488.792969 410.632812 C 488.792969 405.390625 485.300781 401.898438 480.058594 401.898438 Z M 480.058594 401.898438 " fill-opacity="1" fill-rule="nonzero"/><path fill="#004aad" d="M 480.058594 445.566406 L 427.660156 445.566406 C 422.421875 445.566406 418.929688 449.058594 418.929688 454.296875 C 418.929688 459.539062 422.421875 463.03125 427.660156 463.03125 L 480.058594 463.03125 C 485.300781 463.03125 488.792969 459.539062 488.792969 454.296875 C 488.792969 449.058594 485.300781 445.566406 480.058594 445.566406 Z M 480.058594 445.566406 " fill-opacity="1" fill-rule="nonzero"/><g clip-path="url(#fc28848915)"><path fill="#004aad" d="M 200.597656 183.570312 L 172.652344 183.570312 C 163.917969 183.570312 156.933594 190.554688 156.933594 199.289062 L 156.933594 647.300781 C 156.933594 656.035156 163.917969 663.019531 172.652344 663.019531 L 515.867188 663.019531 C 524.597656 663.019531 531.585938 656.035156 531.585938 647.300781 L 531.585938 620.226562 L 561.277344 620.226562 C 567.390625 620.226562 575.253906 614.988281 575.253906 601.886719 L 575.253906 585.296875 L 597.085938 585.296875 C 600.578125 585.296875 610.183594 583.546875 610.183594 566.082031 L 610.183594 118.945312 C 611.058594 106.71875 602.324219 104.972656 597.957031 104.972656 L 253.871094 104.972656 C 241.644531 104.972656 235.53125 111.957031 235.53125 118.945312 L 235.53125 139.902344 L 218.9375 139.902344 C 208.457031 139.902344 200.597656 146.015625 200.597656 153.875 Z M 514.992188 646.425781 L 174.398438 646.425781 L 174.398438 201.035156 L 514.992188 201.035156 Z M 252.996094 122.4375 L 593.589844 122.4375 L 593.589844 567.828125 L 576.125 567.828125 L 576.125 153.875 C 576.125 145.144531 570.886719 139.902344 562.152344 139.902344 L 252.996094 139.902344 Z M 218.9375 157.371094 L 558.660156 157.371094 L 558.660156 602.761719 L 532.460938 602.761719 L 532.460938 199.289062 C 532.460938 190.554688 525.472656 183.570312 516.738281 183.570312 L 218.066406 183.570312 L 218.9375 157.371094 C 218.066406 157.371094 218.9375 157.371094 218.9375 157.371094 Z M 218.9375 157.371094 " fill-opacity="1" fill-rule="nonzero"/></g><path fill="#004aad" d="M 480.058594 227.234375 L 209.332031 227.234375 C 204.09375 227.234375 200.597656 230.730469 200.597656 235.96875 L 200.597656 323.300781 C 200.597656 328.539062 204.09375 332.035156 209.332031 332.035156 L 480.058594 332.035156 C 485.300781 332.035156 488.792969 328.539062 488.792969 323.300781 L 488.792969 235.96875 C 488.792969 230.730469 485.300781 227.234375 480.058594 227.234375 Z M 471.328125 314.566406 L 218.066406 314.566406 L 218.066406 244.703125 L 471.328125 244.703125 Z M 471.328125 314.566406 " fill-opacity="1" fill-rule="nonzero"/><path fill="#004aad" d="M 322.863281 497.964844 L 209.332031 497.964844 C 204.09375 497.964844 200.597656 501.457031 200.597656 506.695312 L 200.597656 594.027344 C 200.597656 599.269531 204.09375 602.761719 209.332031 602.761719 L 322.863281 602.761719 C 328.101562 602.761719 331.597656 599.269531 331.597656 594.027344 L 331.597656 506.695312 C 331.597656 501.457031 328.101562 497.964844 322.863281 497.964844 Z M 314.128906 585.296875 L 218.066406 585.296875 L 218.066406 515.429688 L 314.128906 515.429688 Z M 314.128906 585.296875 " fill-opacity="1" fill-rule="nonzero"/></svg>