<svg xmlns="http://www.w3.org/2000/svg" xmlns:xlink="http://www.w3.org/1999/xlink" width="1024" zoomAndPan="magnify" viewBox="0 0 768 767.999994" height="1024" preserveAspectRatio="xMidYMid meet" version="1.0"><defs><clipPath id="6afb1f8012"><path d="M 75 119.394531 L 694 119.394531 L 694 676.644531 L 75 676.644531 Z M 75 119.394531 " clip-rule="nonzero"/></clipPath></defs><rect x="-76.8" width="921.6" fill="#ffffff" y="-76.799999" height="921.599993" fill-opacity="1"/><rect x="-76.8" width="921.6" fill="#ffffff" y="-76.799999" height="921.599993" fill-opacity="1"/><g clip-path="url(#6afb1f8012)"><path fill="#004aad" d="M 642.417969 243.265625 L 615.742188 243.265625 L 556.867188 184.394531 C 555.722656 183.28125 554.371094 182.488281 552.875 182.027344 C 551.808594 181.621094 550.667969 181.578125 549.574219 181.371094 L 502.265625 181.371094 L 443.390625 122.496094 C 441.433594 120.511719 438.753906 119.765625 436.097656 119.476562 L 178.195312 119.476562 C 161.128906 119.476562 147.25 133.355469 147.25 150.421875 L 147.25 243.265625 L 126.617188 243.265625 C 99.136719 242.613281 74.347656 267.246094 75.035156 294.847656 C 75.035156 294.847656 75.035156 604.328125 75.035156 604.328125 C 75.035156 644.140625 107.429688 676.539062 147.25 676.539062 L 621.785156 676.539062 C 661.601562 676.539062 693.996094 644.140625 693.996094 604.328125 L 693.996094 294.847656 C 693.996094 266.40625 670.855469 243.265625 642.417969 243.265625 Z M 632.101562 263.898438 L 642.417969 263.898438 C 669.441406 263.382812 683.71875 297.933594 664.367188 316.699219 C 656.089844 325.667969 643.421875 326.355469 632.101562 325.796875 Z M 559.890625 216.589844 L 596.882812 253.582031 L 570.203125 253.582031 C 564.519531 253.582031 559.890625 248.953125 559.890625 243.265625 Z M 518.625 202.003906 L 539.257812 202.003906 L 539.257812 243.265625 C 539.257812 260.332031 553.140625 274.214844 570.203125 274.214844 L 611.46875 274.214844 L 611.46875 325.796875 L 570.203125 325.796875 C 569.574219 320.109375 572.265625 301.804688 567.183594 297.871094 C 567.183594 297.871094 518.625 249.3125 518.625 249.3125 Z M 508.308594 315.480469 L 549.574219 315.480469 L 549.574219 325.796875 L 219.460938 325.796875 L 219.460938 253.582031 C 219.460938 247.894531 224.089844 243.265625 229.777344 243.265625 L 477.359375 243.265625 L 477.359375 284.53125 C 477.359375 301.597656 491.242188 315.480469 508.308594 315.480469 Z M 534.984375 294.847656 L 508.308594 294.847656 C 502.621094 294.847656 497.992188 290.21875 497.992188 284.53125 L 497.992188 257.855469 Z M 446.414062 154.695312 L 483.40625 191.6875 L 456.730469 191.6875 C 451.042969 191.6875 446.414062 187.058594 446.414062 181.371094 Z M 167.878906 150.421875 C 167.878906 144.734375 172.507812 140.105469 178.195312 140.105469 L 425.78125 140.105469 L 425.78125 181.371094 C 425.78125 198.4375 439.664062 212.320312 456.730469 212.320312 L 497.992188 212.320312 L 497.992188 228.679688 C 495.234375 225.582031 491.992188 222.742188 487.675781 222.636719 L 229.777344 222.636719 C 212.710938 222.636719 198.828125 236.515625 198.828125 253.582031 L 198.828125 325.796875 L 167.878906 325.796875 Z M 104.664062 272.996094 C 114.605469 261.46875 133.820312 264.066406 147.25 263.898438 L 147.25 325.796875 L 126.617188 325.796875 C 99.589844 326.308594 85.316406 291.761719 104.664062 272.996094 Z M 673.363281 604.328125 C 673.363281 632.765625 650.222656 655.90625 621.785156 655.90625 L 147.25 655.90625 C 118.808594 655.90625 95.667969 632.765625 95.667969 604.328125 L 95.667969 335.847656 C 104.316406 342.394531 114.960938 346.425781 126.617188 346.425781 L 642.417969 346.425781 C 653.683594 346.425781 664.359375 342.613281 673.363281 335.839844 Z M 673.363281 604.328125 " fill-opacity="1" fill-rule="nonzero"/></g><path fill="#004aad" d="M 528.941406 428.957031 L 528.941406 408.324219 C 528.941406 385.570312 510.429688 367.058594 487.675781 367.058594 L 281.355469 367.058594 C 258.605469 367.058594 240.09375 385.570312 240.09375 408.324219 L 240.09375 428.957031 C 240.09375 451.710938 258.605469 470.21875 281.355469 470.21875 L 487.675781 470.21875 C 510.429688 470.21875 528.941406 451.710938 528.941406 428.957031 Z M 260.722656 428.957031 L 260.722656 408.324219 C 260.722656 396.949219 269.976562 387.691406 281.355469 387.691406 L 487.675781 387.691406 C 499.054688 387.691406 508.308594 396.949219 508.308594 408.324219 L 508.308594 428.957031 C 508.308594 440.328125 499.054688 449.585938 487.675781 449.585938 L 281.355469 449.585938 C 269.976562 449.585938 260.722656 440.328125 260.722656 428.957031 Z M 260.722656 428.957031 " fill-opacity="1" fill-rule="nonzero"/><path fill="#004aad" d="M 611.46875 511.484375 L 467.042969 511.484375 C 449.980469 511.484375 436.097656 525.367188 436.097656 542.429688 L 436.097656 604.328125 C 436.097656 621.394531 449.980469 635.277344 467.042969 635.277344 L 611.46875 635.277344 C 628.535156 635.277344 642.417969 621.394531 642.417969 604.328125 L 642.417969 542.429688 C 642.417969 525.367188 628.535156 511.484375 611.46875 511.484375 Z M 621.785156 604.328125 C 621.785156 610.019531 617.15625 614.644531 611.46875 614.644531 L 467.042969 614.644531 C 461.359375 614.644531 456.730469 610.019531 456.730469 604.328125 L 456.730469 542.429688 C 456.730469 536.738281 461.359375 532.117188 467.042969 532.117188 L 611.46875 532.117188 C 617.15625 532.117188 621.785156 536.738281 621.785156 542.429688 Z M 621.785156 604.328125 " fill-opacity="1" fill-rule="nonzero"/><path fill="#004aad" d="M 593.863281 555.757812 L 580.492188 569.117188 L 567.117188 555.757812 C 563.085938 551.75 556.5625 551.738281 552.535156 555.769531 L 539.203125 569.109375 L 525.875 555.769531 C 522.003906 551.902344 515.160156 551.902344 511.28125 555.769531 L 497.960938 569.097656 L 484.660156 555.78125 C 475.097656 546.269531 460.566406 560.761719 470.0625 570.347656 C 470.0625 570.347656 490.660156 590.980469 490.660156 590.980469 C 492.59375 592.925781 495.222656 594.011719 497.957031 594.011719 C 504.273438 594.765625 512.5625 582.863281 518.578125 577.660156 C 539.417969 599.515625 539.023438 599.441406 559.832031 577.652344 L 573.203125 591 C 577.230469 595.007812 583.75 595.007812 587.78125 591 L 608.441406 570.367188 C 617.933594 560.792969 603.464844 546.277344 593.863281 555.757812 Z M 593.863281 555.757812 " fill-opacity="1" fill-rule="nonzero"/><path fill="#004aad" d="M 191.535156 529.980469 L 173.039062 548.476562 L 173.039062 470.21875 C 173.039062 464.515625 168.417969 459.902344 162.722656 459.902344 C 157.027344 459.902344 152.40625 464.515625 152.40625 470.21875 L 152.40625 548.476562 L 133.910156 529.980469 C 124.355469 520.492188 109.808594 534.980469 119.324219 544.566406 C 119.324219 544.566406 155.421875 580.667969 155.421875 580.667969 C 159.257812 584.65625 166.1875 584.660156 170.023438 580.667969 L 206.121094 544.566406 C 215.601562 535.003906 201.128906 520.46875 191.535156 529.980469 Z M 191.535156 529.980469 " fill-opacity="1" fill-rule="nonzero"/></svg>