<svg xmlns="http://www.w3.org/2000/svg" xmlns:xlink="http://www.w3.org/1999/xlink" width="1024" zoomAndPan="magnify" viewBox="0 0 768 767.999994" height="1024" preserveAspectRatio="xMidYMid meet" version="1.0"><defs><clipPath id="d0da3f9b5d"><path d="M 60 156.039062 L 721 156.039062 L 721 596 L 60 596 Z M 60 156.039062 " clip-rule="nonzero"/></clipPath></defs><rect x="-76.8" width="921.6" fill="#ffffff" y="-76.799999" height="921.599993" fill-opacity="1"/><rect x="-76.8" width="921.6" fill="#ffffff" y="-76.799999" height="921.599993" fill-opacity="1"/><g clip-path="url(#d0da3f9b5d)"><path fill="#004aad" d="M 678.53125 155.902344 C 677.933594 155.902344 677.304688 155.96875 676.707031 156.109375 L 601.546875 175.980469 C 597.867188 176.925781 595.695312 180.675781 596.675781 184.355469 L 600.738281 199.316406 L 581.539062 204.46875 C 534.582031 204.398438 487.628906 204.222656 440.636719 204.1875 C 440.53125 204.152344 440.425781 204.152344 440.320312 204.1875 C 433.035156 204.503906 426.128906 207.515625 420.910156 212.5625 C 420.734375 212.703125 420.59375 212.84375 420.417969 213.015625 C 416.390625 216.976562 412.394531 220.972656 408.363281 224.964844 C 404.335938 228.960938 400.304688 232.957031 396.277344 236.949219 C 392.28125 240.945312 388.25 244.941406 384.222656 248.933594 C 380.191406 252.894531 376.195312 256.921875 372.167969 260.917969 C 368.136719 264.878906 364.109375 268.871094 360.078125 272.867188 C 359.832031 273.113281 359.585938 273.359375 359.34375 273.601562 C 355.628906 271.21875 351.527344 269.363281 347.113281 268.171875 C 340.839844 266.523438 334.535156 266.28125 328.507812 267.226562 C 310.355469 270.132812 294.515625 284.011719 289.296875 303.351562 C 280.640625 335.519531 293.324219 365.269531 307.550781 386.539062 C 321.8125 407.808594 338.140625 421.371094 338.140625 421.371094 C 339.683594 422.632812 341.714844 423.191406 343.714844 422.84375 C 343.714844 422.84375 345.1875 422.597656 347.5 422.070312 C 349.847656 421.546875 353.210938 420.742188 357.238281 419.582031 C 361.269531 418.425781 366 416.921875 371.1875 414.992188 C 376.371094 413.066406 381.980469 410.71875 387.726562 407.878906 C 393.472656 405.042969 399.394531 401.714844 405.175781 397.824219 C 406.613281 396.84375 408.050781 395.824219 409.484375 394.773438 C 410.886719 393.722656 412.289062 392.636719 413.691406 391.515625 C 415.09375 390.394531 416.496094 389.238281 417.824219 388.046875 C 419.191406 386.820312 420.523438 385.59375 421.820312 384.296875 C 422.484375 383.667969 423.117188 383 423.78125 382.335938 C 424.414062 381.667969 425.042969 381.003906 425.675781 380.339844 C 426.128906 379.8125 426.585938 379.320312 427.007812 378.796875 C 427.636719 378.585938 428.269531 378.375 428.898438 378.164062 L 521.546875 353.320312 C 531.464844 351.078125 537.980469 344.875 543.726562 341.757812 C 543.867188 341.722656 543.972656 341.652344 544.078125 341.582031 C 565.347656 328.511719 586.582031 315.441406 607.851562 302.371094 L 627.335938 297.152344 L 631.332031 311.796875 C 632.3125 315.476562 636.097656 317.648438 639.773438 316.667969 L 714.9375 296.835938 C 718.617188 295.855469 720.789062 292.105469 719.773438 288.425781 L 685.152344 160.980469 C 684.347656 158.003906 681.613281 155.902344 678.53125 155.867188 Z M 394.277344 162.875 C 356.046875 162.207031 317.679688 171.703125 284.390625 191.082031 L 284.355469 191.082031 C 212.34375 231.414062 169.070312 315.546875 178.566406 397.578125 C 178.847656 401.46875 182.316406 404.339844 186.203125 403.886719 C 190.058594 403.429688 192.792969 399.855469 192.195312 396 C 183.402344 319.753906 224.1875 240.453125 291.152344 202.996094 L 291.1875 202.996094 L 291.257812 202.960938 C 344.132812 172.160156 411.589844 168.164062 467.863281 192.238281 C 471.367188 193.851562 475.503906 192.238281 477.011719 188.699219 C 478.515625 185.160156 476.835938 181.058594 473.261719 179.625 C 450.625 169.917969 426.375 164.449219 401.917969 163.152344 L 401.917969 163.1875 C 399.359375 163.050781 396.835938 162.980469 394.277344 162.875 Z M 673.660156 171.144531 L 704.707031 285.34375 L 642.824219 301.707031 L 611.777344 187.472656 L 636.0625 181.058594 L 638.96875 191.675781 L 643.175781 207.199219 C 644.085938 210.914062 647.941406 213.191406 651.652344 212.175781 C 655.367188 211.160156 657.542969 207.269531 656.417969 203.589844 L 652.214844 188.066406 L 649.339844 177.554688 Z M 604.347656 212.597656 L 623.726562 283.90625 L 603.964844 289.230469 C 603.367188 289.335938 602.773438 289.511719 602.210938 289.792969 C 602.140625 289.828125 602.070312 289.898438 602 289.933594 C 601.929688 289.96875 601.894531 289.96875 601.824219 290.003906 C 601.652344 290.109375 601.511719 290.175781 601.335938 290.28125 C 579.960938 303.421875 558.585938 316.597656 537.210938 329.738281 C 537.140625 329.738281 537.105469 329.738281 537.105469 329.773438 C 529.429688 333.945312 523.894531 338.675781 518.636719 339.9375 C 518.429688 340.003906 518.21875 340.039062 518.007812 340.109375 L 517.9375 340.144531 C 517.796875 340.144531 517.691406 340.179688 517.550781 340.214844 L 425.183594 364.953125 C 424.9375 365.023438 424.730469 365.128906 424.484375 365.234375 C 417.40625 367.96875 408.539062 366.144531 404.195312 360.222656 C 404.125 360.121094 404.019531 360.015625 403.949219 359.910156 C 397.640625 352.339844 401.109375 338.253906 410.082031 334.609375 C 424.972656 330.054688 416.144531 332.859375 432.191406 328.40625 L 432.261719 328.371094 L 462.398438 320.277344 C 478.515625 315.96875 488.082031 299.183594 483.773438 283.027344 C 480.515625 270.90625 470.28125 262.285156 458.578125 260.636719 C 454.6875 260.078125 450.589844 260.289062 446.558594 261.410156 L 421.085938 268.488281 C 420.382812 268.628906 419.71875 268.835938 419.085938 269.152344 C 418.070312 269.644531 417.230469 270.34375 416.5625 271.21875 C 414.144531 273.636719 411.761719 276.054688 409.347656 278.472656 C 407.417969 280.4375 405.457031 282.398438 403.527344 284.359375 C 393.824219 283.976562 384.1875 286.882812 375.917969 292.421875 C 374.164062 288.917969 372.0625 285.691406 369.644531 282.785156 C 369.679688 282.714844 369.714844 282.714844 369.75 282.644531 C 373.777344 278.648438 377.808594 274.65625 381.839844 270.660156 C 385.832031 266.664062 389.863281 262.707031 393.894531 258.710938 C 397.921875 254.714844 401.953125 250.722656 405.980469 246.726562 C 409.976562 242.730469 414.007812 238.738281 418.035156 234.742188 C 422.066406 230.746094 426.09375 226.753906 430.089844 222.757812 C 430.125 222.722656 430.160156 222.6875 430.195312 222.652344 C 433 219.851562 436.992188 218.097656 440.917969 217.921875 C 487.765625 217.921875 534.617188 218.097656 581.503906 218.203125 C 582.273438 218.273438 583.042969 218.238281 583.78125 218.0625 C 583.851562 218.0625 583.886719 218.0625 583.953125 218.027344 C 584.023438 218.027344 584.128906 217.992188 584.234375 217.957031 L 584.445312 217.921875 Z M 656.140625 221.8125 C 652.25 221.671875 648.992188 224.757812 648.992188 228.644531 C 648.992188 232.535156 652.25 235.652344 656.140625 235.511719 C 660.027344 235.652344 663.253906 232.535156 663.253906 228.644531 C 663.253906 224.757812 660.027344 221.671875 656.140625 221.8125 Z M 455.214844 274.058594 C 462.222656 274.304688 468.53125 279.175781 470.527344 286.566406 C 472.945312 295.679688 467.792969 304.613281 458.859375 307.03125 L 442.808594 311.308594 C 442.355469 310.257812 441.828125 309.238281 441.304688 308.222656 C 439.832031 305.527344 438.148438 303.003906 436.1875 300.65625 C 434.261719 298.308594 432.085938 296.132812 429.703125 294.207031 C 427.320312 292.28125 424.730469 290.5625 421.925781 289.160156 C 421.085938 288.707031 420.207031 288.320312 419.332031 287.933594 C 421.46875 285.761719 423.609375 283.625 425.746094 281.453125 L 450.273438 274.65625 C 451.921875 274.199219 453.566406 274.023438 455.214844 274.058594 Z M 335.375 280.4375 C 338.074219 280.402344 340.839844 280.75 343.574219 281.488281 C 354.613281 284.429688 363.265625 293.261719 366.316406 305.105469 C 367.648438 310.257812 374.128906 312.007812 377.878906 308.1875 C 386.464844 299.464844 398.449219 296.097656 409.519531 299.007812 C 411.695312 299.605469 413.761719 300.375 415.6875 301.390625 C 417.617188 302.371094 419.402344 303.527344 421.050781 304.894531 C 422.730469 306.226562 424.238281 307.734375 425.605469 309.378906 C 426.972656 311.0625 428.164062 312.847656 429.214844 314.777344 C 429.25 314.8125 429.25 314.882812 429.320312 314.953125 L 428.652344 315.125 L 428.617188 315.125 C 428.617188 315.125 428.617188 315.125 428.617188 315.160156 C 412.289062 319.683594 421.925781 316.632812 405.632812 321.609375 C 405.457031 321.679688 405.28125 321.75 405.105469 321.820312 C 386.816406 329.109375 380.859375 353.320312 393.332031 368.527344 C 397.082031 373.574219 402.128906 376.9375 407.699219 378.726562 C 406.824219 379.460938 405.980469 380.199219 405.105469 380.898438 C 403.878906 381.878906 402.617188 382.859375 401.355469 383.773438 C 400.09375 384.71875 398.796875 385.59375 397.503906 386.503906 C 392.316406 389.972656 386.953125 393.023438 381.664062 395.617188 C 376.40625 398.207031 371.222656 400.382812 366.421875 402.167969 C 361.621094 403.957031 357.203125 405.355469 353.457031 406.445312 C 349.777344 407.496094 346.796875 408.230469 344.660156 408.6875 C 341.648438 406.023438 330.433594 396 319.011719 378.972656 C 305.976562 359.488281 295.359375 333.804688 302.609375 306.996094 C 306.921875 290.949219 320.726562 280.542969 335.410156 280.4375 Z M 592.015625 327.25 C 587.667969 327.390625 584.515625 331.457031 585.496094 335.660156 C 601.511719 409.351562 570.5 490.855469 509.597656 535.253906 L 509.492188 535.359375 C 449.011719 581.507812 362.039062 587.746094 295.496094 550.882812 C 292.167969 548.957031 287.929688 550.148438 286.035156 553.511719 C 284.179688 556.875 285.441406 561.113281 288.839844 562.902344 C 360.359375 602.496094 452.796875 595.875 517.796875 546.292969 C 583.289062 498.496094 616.15625 412.015625 598.953125 332.789062 C 598.285156 329.492188 595.34375 327.179688 592.015625 327.25 Z M 449.886719 400.90625 C 445.964844 401.046875 442.003906 401.957031 438.253906 403.78125 C 438.148438 403.851562 438.007812 403.886719 437.902344 403.957031 C 410.570312 419.339844 383.484375 435.035156 356.328125 450.558594 C 354.191406 435.984375 341.542969 424.734375 326.367188 424.699219 L 195.527344 424.3125 C 194.265625 424.3125 193.003906 424.382812 191.742188 424.558594 C 191.707031 424.558594 191.636719 424.558594 191.601562 424.59375 C 191.566406 424.59375 191.496094 424.59375 191.460938 424.59375 C 191.109375 424.664062 190.761719 424.664062 190.445312 424.769531 C 190.234375 424.804688 190.058594 424.839844 189.847656 424.910156 C 189.570312 424.945312 189.324219 424.980469 189.042969 425.085938 C 188.796875 425.121094 188.550781 425.226562 188.308594 425.261719 C 188.097656 425.332031 187.886719 425.402344 187.675781 425.4375 C 187.394531 425.503906 187.082031 425.609375 186.800781 425.679688 C 186.625 425.75 186.449219 425.820312 186.273438 425.890625 C 185.925781 425.960938 185.609375 426.066406 185.292969 426.207031 C 185.1875 426.242188 185.082031 426.277344 184.976562 426.347656 C 184.59375 426.523438 184.171875 426.628906 183.785156 426.800781 L 183.753906 426.800781 C 183.71875 426.835938 183.71875 426.835938 183.71875 426.835938 C 182.527344 427.328125 181.335938 427.886719 180.210938 428.554688 L 156.804688 441.941406 L 150.882812 445.339844 L 149.375 439.800781 C 148.359375 436.160156 144.609375 433.984375 140.933594 434.96875 L 65.769531 454.800781 C 62.089844 455.78125 59.917969 459.53125 60.898438 463.175781 L 95.554688 590.652344 C 96.570312 594.332031 100.320312 596.503906 104 595.523438 L 179.195312 575.65625 C 182.839844 574.710938 185.011719 570.960938 184.03125 567.28125 L 181.824219 559.257812 L 190.867188 554.070312 L 214.273438 540.652344 C 215.535156 539.914062 216.867188 539.425781 218.199219 539.074219 C 219.527344 538.722656 220.894531 538.511719 222.367188 538.511719 L 314.59375 538.722656 C 319.921875 539.003906 325.246094 537.917969 329.976562 535.5 C 330.082031 535.429688 330.1875 535.359375 330.257812 535.289062 C 374.65625 509.953125 418.980469 484.480469 463.308594 459.109375 C 475.957031 453.1875 483.773438 439.03125 480.304688 424.910156 C 477.535156 411 464.921875 401.503906 451.535156 401.117188 C 450.972656 401.082031 450.414062 401.082031 449.851562 401.117188 Z M 449.363281 414.851562 C 457 414.503906 465.480469 420.003906 466.917969 427.46875 C 466.953125 427.609375 466.988281 427.75 467.023438 427.855469 C 468.878906 435.140625 464.21875 443.550781 457.175781 446.636719 C 456.964844 446.742188 456.722656 446.847656 456.511719 446.984375 C 412.253906 472.320312 368.03125 497.761719 323.742188 523.058594 C 321.113281 524.355469 318.0625 524.988281 315.15625 524.777344 C 315.121094 524.777344 315.050781 524.777344 315.015625 524.777344 C 314.910156 524.777344 314.769531 524.777344 314.628906 524.777344 L 314.523438 524.777344 C 314.488281 524.777344 314.453125 524.777344 314.417969 524.777344 L 222.402344 524.566406 C 221.597656 524.566406 220.789062 524.601562 219.949219 524.671875 C 219.597656 524.636719 219.25 524.671875 218.863281 524.707031 C 217.636719 524.882812 216.375 525.09375 215.148438 525.40625 C 214.972656 525.476562 214.832031 525.476562 214.65625 525.546875 C 214.519531 525.546875 214.414062 525.617188 214.308594 525.617188 C 213.046875 525.933594 211.820312 526.355469 210.664062 526.84375 C 210.3125 526.984375 209.996094 527.160156 209.71875 527.335938 C 208.945312 527.648438 208.210938 528.070312 207.476562 528.492188 L 184.101562 541.875 L 178.144531 545.277344 L 154.632812 458.757812 L 163.671875 453.609375 L 187.082031 440.1875 C 187.851562 439.765625 188.621094 439.417969 189.394531 439.101562 C 189.707031 438.960938 190.058594 438.855469 190.375 438.714844 C 190.65625 438.644531 190.933594 438.542969 191.179688 438.542969 C 191.425781 438.472656 191.636719 438.402344 191.847656 438.367188 C 192.265625 438.261719 192.722656 438.15625 193.144531 438.15625 C 193.914062 438.015625 194.683594 437.980469 195.492188 437.980469 L 326.332031 438.332031 C 335.621094 438.367188 342.90625 445.621094 342.941406 454.835938 C 342.941406 464.015625 335.792969 471.164062 326.507812 471.164062 L 261.085938 470.953125 L 244.757812 470.882812 C 240.867188 470.742188 237.609375 473.828125 237.609375 477.71875 C 237.574219 481.605469 240.796875 484.761719 244.6875 484.621094 L 261.050781 484.65625 L 326.472656 484.863281 C 338.421875 484.898438 348.828125 477.890625 353.699219 467.765625 C 353.875 467.695312 354.015625 467.625 354.15625 467.554688 C 384.257812 450.386719 414.179688 433.003906 444.316406 416.042969 C 445.894531 415.273438 447.609375 414.886719 449.363281 414.785156 Z M 137.917969 449.753906 L 168.964844 563.988281 L 107.046875 580.351562 L 76 466.117188 L 100.320312 459.707031 L 103.191406 470.289062 L 107.433594 485.8125 C 108.34375 489.5625 112.164062 491.839844 115.914062 490.820312 C 119.628906 489.804688 121.800781 485.917969 120.679688 482.238281 L 116.472656 466.714844 L 113.601562 456.203125 Z M 120.398438 500.421875 C 111.324219 500.527344 111.324219 514.054688 120.398438 514.160156 C 129.4375 514.054688 129.4375 500.527344 120.398438 500.421875 Z M 120.398438 500.421875 " fill-opacity="1" fill-rule="nonzero"/></g></svg>