<svg xmlns="http://www.w3.org/2000/svg" xmlns:xlink="http://www.w3.org/1999/xlink" width="1024" zoomAndPan="magnify" viewBox="0 0 768 767.999994" height="1024" preserveAspectRatio="xMidYMid meet" version="1.0"><defs><clipPath id="660a3a41b9"><path d="M 383 494 L 651.5625 494 L 651.5625 677 L 383 677 Z M 383 494 " clip-rule="nonzero"/></clipPath><clipPath id="b271d7f506"><path d="M 383 409 L 651.5625 409 L 651.5625 474 L 383 474 Z M 383 409 " clip-rule="nonzero"/></clipPath><clipPath id="f5d932c7bd"><path d="M 104.0625 398 L 331 398 L 331 602 L 104.0625 602 Z M 104.0625 398 " clip-rule="nonzero"/></clipPath></defs><rect x="-76.8" width="921.6" fill="#ffffff" y="-76.799999" height="921.599993" fill-opacity="1"/><rect x="-76.8" width="921.6" fill="#ffffff" y="-76.799999" height="921.599993" fill-opacity="1"/><path fill="#004aad" d="M 233.644531 184.304688 C 263.179688 184.304688 287.191406 160.292969 287.191406 130.757812 C 287.191406 101.222656 263.179688 77.210938 233.644531 77.210938 C 204.113281 77.210938 180.101562 101.222656 180.101562 130.757812 C 180.101562 160.292969 204.113281 184.304688 233.644531 184.304688 " fill-opacity="1" fill-rule="nonzero"/><path fill="#004aad" d="M 320.953125 209.695312 C 298.613281 234.503906 267.320312 248.558594 233.644531 248.558594 C 199.96875 248.558594 168.679688 234.503906 146.339844 209.695312 C 127.347656 223.75 115.84375 246.132812 115.84375 269.976562 L 115.84375 334.234375 C 115.84375 340.132812 120.65625 344.941406 126.554688 344.941406 L 340.738281 344.941406 C 346.636719 344.941406 351.449219 340.132812 351.449219 334.234375 L 351.449219 269.976562 C 351.449219 246.132812 339.945312 223.75 320.953125 209.695312 " fill-opacity="1" fill-rule="nonzero"/><g clip-path="url(#660a3a41b9)"><path fill="#004aad" d="M 383.574219 623.382812 C 383.574219 652.917969 407.585938 676.929688 437.121094 676.929688 L 597.761719 676.929688 C 627.292969 676.929688 651.304688 652.917969 651.304688 623.382812 L 651.304688 494.871094 L 383.574219 494.871094 L 383.574219 623.382812 " fill-opacity="1" fill-rule="nonzero"/></g><g clip-path="url(#b271d7f506)"><path fill="#004aad" d="M 519.699219 448.9375 C 517.648438 450.863281 514.890625 452.035156 512.085938 452.035156 C 510.707031 452.035156 509.285156 451.699219 508.027344 451.15625 C 506.605469 450.652344 505.558594 449.902344 504.472656 448.9375 C 502.546875 446.890625 501.375 444.128906 501.375 441.324219 C 501.375 438.523438 502.546875 435.761719 504.472656 433.710938 C 505.558594 432.75 506.605469 431.996094 508.027344 431.453125 C 511.960938 429.738281 516.6875 430.742188 519.699219 433.710938 C 521.625 435.761719 522.796875 438.523438 522.796875 441.324219 C 522.796875 444.128906 521.625 446.890625 519.699219 448.9375 Z M 476.863281 448.9375 C 474.8125 450.863281 472.050781 452.035156 469.25 452.035156 C 468.621094 452.035156 467.867188 451.910156 467.117188 451.824219 C 466.445312 451.699219 465.820312 451.492188 465.191406 451.15625 C 464.523438 450.945312 463.894531 450.652344 463.265625 450.195312 C 462.722656 449.773438 462.179688 449.355469 461.636719 448.9375 C 459.710938 446.890625 458.539062 444.128906 458.539062 441.324219 C 458.539062 438.523438 459.710938 435.761719 461.636719 433.710938 C 462.179688 433.292969 462.722656 432.75 463.265625 432.414062 C 463.894531 431.996094 464.523438 431.660156 465.191406 431.453125 C 465.820312 431.160156 466.445312 430.949219 467.117188 430.824219 C 470.628906 430.199219 474.394531 431.242188 476.863281 433.710938 C 478.785156 435.761719 479.957031 438.523438 479.957031 441.324219 C 479.957031 444.128906 478.785156 446.890625 476.863281 448.9375 Z M 436.242188 445.382812 C 435.742188 446.804688 434.988281 447.851562 434.027344 448.9375 C 431.976562 450.863281 429.214844 452.035156 426.414062 452.035156 C 423.609375 452.035156 420.847656 450.863281 418.796875 448.9375 C 416.875 446.890625 415.703125 444.128906 415.703125 441.324219 C 415.703125 438.523438 416.875 435.761719 418.796875 433.710938 C 422.855469 429.738281 429.96875 429.738281 434.027344 433.710938 C 434.988281 434.671875 435.742188 435.84375 436.242188 437.265625 C 436.785156 438.523438 437.121094 439.945312 437.121094 441.324219 C 437.121094 442.707031 436.785156 444.128906 436.242188 445.382812 Z M 597.761719 409.195312 L 437.121094 409.195312 C 407.585938 409.195312 383.574219 433.210938 383.574219 462.742188 L 383.574219 473.453125 L 651.304688 473.453125 L 651.304688 462.742188 C 651.304688 433.210938 627.292969 409.195312 597.761719 409.195312 " fill-opacity="1" fill-rule="nonzero"/></g><path fill="#004aad" d="M 549.859375 313.316406 L 524.46875 291.394531 L 526.726562 322.144531 L 565.632812 355.652344 L 599.140625 316.746094 L 596.882812 286 L 572.074219 314.78125 C 553 221.074219 469.960938 152.175781 372.867188 152.175781 L 372.867188 173.59375 C 457.746094 173.59375 530.617188 232.453125 549.859375 313.316406 " fill-opacity="1" fill-rule="nonzero"/><g clip-path="url(#f5d932c7bd)"><path fill="#004aad" d="M 153.035156 440.824219 L 178.425781 462.742188 L 176.167969 431.996094 L 137.261719 398.488281 L 103.753906 437.394531 L 106.011719 468.140625 L 130.777344 439.359375 C 149.894531 533.066406 232.933594 601.964844 330.027344 601.964844 L 330.027344 580.546875 C 245.148438 580.546875 172.277344 521.6875 153.035156 440.824219 " fill-opacity="1" fill-rule="nonzero"/></g></svg>